M48
METRIC,LZ,000.000
;FILE_FORMAT=3:3
;TYPE=PLATED
;Layer: PTH_Through
;EasyEDA v6.5.1, 2022-05-03 13:26:15
;10
;Gerber Generator version 0.2
;Holesize 1 = 0.701 mm
T01C0.701
;Holesize 2 = 0.800 mm
T02C0.800
;Holesize 3 = 0.889 mm
T03C0.889
;Holesize 4 = 0.900 mm
T04C0.900
;Holesize 5 = 1.101 mm
T05C1.101
%
G05
G90
T01
X056377Y-091567
X054875Y-091567
X056377Y-045720
X054875Y-045720
T02
X038989Y-031496
X038989Y-034036
X038989Y-036576
X038989Y-039116
X038989Y-041656
X038989Y-044196
X038989Y-046736
X038989Y-049276
X046609Y-031496
X046609Y-034036
X046609Y-036576
X046609Y-039116
X046609Y-041656
X046609Y-044196
X046609Y-046736
X046609Y-049276
X039243Y-077851
X039243Y-080391
X039243Y-082931
X039243Y-085471
X039243Y-088011
X039243Y-090551
X039243Y-093091
X039243Y-095631
X046863Y-077851
X046863Y-080391
X046863Y-082931
X046863Y-085471
X046863Y-088011
X046863Y-090551
X046863Y-093091
X046863Y-095631
T03
X016383Y-067183
X013843Y-067183
X016383Y-064643
X013843Y-064643
X016383Y-062103
X013843Y-062103
X016383Y-059563
X013843Y-059563
X014351Y-009779
X013843Y-024892
X044323Y-003937
X041783Y-003937
X039243Y-003937
T04
X028956Y-008890
X018796Y-008890
X047879Y-056007
X037719Y-056007
X047879Y-061214
X037719Y-061214
X047752Y-066294
X037592Y-066294
X047752Y-071247
X037592Y-071247
X028956Y-024003
X018796Y-024003
T05
X018542Y-042164
X018542Y-039624
X013462Y-039497
X013462Y-042037
X014224Y-004064
X014224Y-006604
X013843Y-019304
X013843Y-021844
X014097Y-086106
X014097Y-088646
X019177Y-088646
X019177Y-086106
M30
