G04 Layer: TopLayer*
G04 EasyEDA v6.5.1, 2022-05-03 13:26:15*
G04 Gerber Generator version 0.2*
G04 Scale: 100 percent, Rotated: No, Reflected: No *
G04 Dimensions in millimeters *
G04 leading zeros omitted , absolute positions ,4 integer and 5 decimal *
%FSLAX45Y45*%
%MOMM*%

%ADD11C,0.5000*%
%ADD12C,0.7000*%
%ADD13C,0.8000*%
%ADD14C,1.0000*%
%ADD15R,1.5748X1.7000*%
%ADD16C,1.7000*%
%ADD17R,1.5748X1.5748*%
%ADD18C,1.5748*%
%ADD19C,1.8796*%
%ADD20C,1.4600*%

%LPD*%
D11*
X1384300Y-6464300D02*
G01*
X1384300Y-6718300D01*
X1384300Y-6210300D02*
G01*
X1384300Y-6464300D01*
X1384300Y-6210300D02*
G01*
X1384300Y-5956300D01*
X4660900Y-3149600D02*
G01*
X3924300Y-3149600D01*
X4686300Y-7785100D02*
G01*
X3924300Y-7785100D01*
X3924300Y-3149600D02*
G01*
X3898900Y-3149600D01*
X1638300Y-6718300D02*
G01*
X1767103Y-6718300D01*
X1917700Y-8864600D02*
G01*
X2046503Y-8864600D01*
X1409700Y-8610600D02*
G01*
X1538503Y-8610600D01*
X1448711Y-2489200D02*
G01*
X1384300Y-2424788D01*
X1384300Y-2184400D01*
X1448711Y-2489200D02*
G01*
X1513103Y-2489200D01*
X1384300Y-2489200D02*
G01*
X1448711Y-2489200D01*
X1879600Y-2400300D02*
G01*
X1602003Y-2400300D01*
X1513103Y-2489200D01*
X1499511Y-977900D02*
G01*
X1422400Y-900788D01*
X1422400Y-660400D01*
X1499511Y-977900D02*
G01*
X1563903Y-977900D01*
X1435100Y-977900D02*
G01*
X1499511Y-977900D01*
X1879600Y-889000D02*
G01*
X1652803Y-889000D01*
X1563903Y-977900D01*
X1346200Y-3949700D02*
G01*
X1475003Y-3949700D01*
X3898900Y-3403600D02*
G01*
X2021103Y-3403600D01*
X1475003Y-3949700D01*
X3898900Y-3657600D02*
G01*
X2159000Y-3657600D01*
X1854200Y-3962400D01*
X3898900Y-4419600D02*
G01*
X3695700Y-4216400D01*
X1854200Y-4216400D01*
X4073860Y-8801100D02*
G01*
X3924300Y-8801100D01*
X4686300Y-8801100D02*
G01*
X4073860Y-8801100D01*
X4787900Y-5600700D02*
G01*
X4792525Y-5596079D01*
X4792525Y-4572000D01*
X5487540Y-4572000D01*
X4660900Y-3911600D02*
G01*
X3898900Y-3911600D01*
X4660900Y-3911600D02*
G01*
X4660900Y-4165600D01*
X4686300Y-8547100D02*
G01*
X4782131Y-8451268D01*
X4782131Y-8451268D02*
G01*
X5487540Y-9156700D01*
X4787900Y-6121400D02*
G01*
X4787900Y-5600700D01*
X4775200Y-6629400D02*
G01*
X4787900Y-6616700D01*
X4787900Y-6121400D01*
X4775200Y-7124700D02*
G01*
X4775200Y-6629400D01*
X3898900Y-4165600D02*
G01*
X3898900Y-3911600D01*
X4686300Y-8801100D02*
G01*
X4686300Y-8547100D01*
X3924300Y-8801100D02*
G01*
X3924300Y-8547100D01*
X5637659Y-4572000D02*
G01*
X5358259Y-4292600D01*
X4869891Y-4292600D01*
X4782131Y-8451268D02*
G01*
X4940300Y-8293125D01*
X4940300Y-7289774D01*
X4775200Y-7124700D01*
X4869941Y-4292600D02*
G01*
X4394200Y-4292600D01*
X4140200Y-4546600D01*
X3810000Y-4546600D01*
X3721100Y-4635500D01*
X3721100Y-4813300D01*
X3835400Y-4927600D01*
X3898900Y-4927600D01*
X3898900Y-4673600D02*
G01*
X4089400Y-4864100D01*
X4089400Y-4991100D01*
X3962400Y-5118100D01*
X2260600Y-5118100D01*
X1346200Y-4203700D01*
X4432300Y-393700D02*
G01*
X4432300Y-190500D01*
X4155714Y-190500D01*
X4045681Y-300532D01*
X4045706Y-300484D02*
G01*
X4045706Y-1937512D01*
X4965700Y-2857500D01*
X4965700Y-3606800D01*
X4660900Y-3911600D01*
X1384300Y-5956300D02*
G01*
X1079500Y-5651500D01*
X1079500Y-3848100D01*
X1778000Y-3149600D01*
X3898900Y-3149600D01*
X3924300Y-9563100D02*
G01*
X4051300Y-9436100D01*
X5637659Y-9436100D01*
X5637659Y-9156700D01*
D12*
X5637659Y-4572000D02*
G01*
X5637659Y-9156700D01*
D11*
X4869891Y-4292600D02*
G01*
X5194300Y-4292600D01*
X5194300Y-1701800D01*
X4178300Y-685800D01*
X4178300Y-393700D01*
X3898900Y-3162300D02*
G01*
X3898900Y-406400D01*
D13*
X3759200Y-7124700D02*
G01*
X2173503Y-7124700D01*
X1767103Y-6718300D01*
X3759200Y-6629400D02*
G01*
X3594100Y-6464300D01*
X1638300Y-6464300D01*
X3771900Y-6121400D02*
G01*
X3771900Y-6210300D01*
X1638300Y-6210300D01*
X3771900Y-5600700D02*
G01*
X1993900Y-5600700D01*
X1638300Y-5956300D01*
X2895600Y-2400300D02*
G01*
X2895600Y-2184400D01*
X2641600Y-1930400D01*
X1384300Y-1930400D01*
X2895600Y-889000D02*
G01*
X2895600Y-635000D01*
X2667000Y-406400D01*
X1422400Y-406400D01*
X3924300Y-9055100D02*
G01*
X2237003Y-9055100D01*
X2046503Y-8864600D01*
X3924300Y-8293100D02*
G01*
X2235200Y-8293100D01*
X1917700Y-8610600D01*
X3924300Y-8039100D02*
G01*
X3924300Y-8089900D01*
X2059180Y-8089900D01*
X1538480Y-8610600D01*
X3924300Y-9309100D02*
G01*
X1854200Y-9309100D01*
X1409700Y-8864600D01*
X1384300Y-6718300D02*
G01*
X1384300Y-7035800D01*
X1828800Y-7480300D01*
X3924300Y-7480300D01*
X3924300Y-7785100D01*
D11*
X4073908Y-8801100D02*
G01*
X4216400Y-8801100D01*
X4216400Y-8026400D01*
X4102100Y-7912100D01*
X1765300Y-7912100D01*
X762000Y-6908800D01*
X762000Y-3644900D01*
X1524000Y-2882900D01*
X2959100Y-2882900D01*
X3517900Y-2324100D01*
X3517900Y-431800D01*
X3759200Y-190500D01*
X3935735Y-190500D01*
X4045706Y-300484D01*
D14*
G01*
X5637656Y-9156700D03*
G01*
X5487543Y-9156700D03*
G01*
X5637656Y-4572000D03*
G01*
X5487543Y-4572000D03*
D15*
G01*
X1854200Y-4216400D03*
D16*
G01*
X1854200Y-3962400D03*
D15*
G01*
X1346200Y-3949700D03*
D16*
G01*
X1346200Y-4203700D03*
D15*
G01*
X1422400Y-406400D03*
D16*
G01*
X1422400Y-660400D03*
D15*
G01*
X1384300Y-1930400D03*
D16*
G01*
X1384300Y-2184400D03*
D15*
G01*
X1409700Y-8610600D03*
D16*
G01*
X1409700Y-8864600D03*
D15*
G01*
X1917700Y-8864600D03*
D16*
G01*
X1917700Y-8610600D03*
D17*
G01*
X1638300Y-6718300D03*
D18*
G01*
X1384300Y-6718300D03*
G01*
X1638300Y-6464300D03*
G01*
X1384300Y-6464300D03*
G01*
X1638300Y-6210300D03*
G01*
X1384300Y-6210300D03*
G01*
X1638300Y-5956300D03*
G01*
X1384300Y-5956300D03*
D17*
G01*
X1435100Y-977900D03*
G01*
X1384300Y-2489200D03*
D18*
G01*
X4432300Y-393700D03*
G01*
X4178300Y-393700D03*
G36*
X3845559Y-314960D02*
G01*
X4003040Y-314960D01*
X4003040Y-472439D01*
X3845559Y-472439D01*
G37*
D19*
G01*
X2895600Y-889000D03*
G01*
X1879600Y-889000D03*
G01*
X4787900Y-5600700D03*
G01*
X3771900Y-5600700D03*
G01*
X4787900Y-6121400D03*
G01*
X3771900Y-6121400D03*
G01*
X4775200Y-6629400D03*
G01*
X3759200Y-6629400D03*
G01*
X4775200Y-7124700D03*
G01*
X3759200Y-7124700D03*
G01*
X2895600Y-2400300D03*
G01*
X1879600Y-2400300D03*
D20*
X3917149Y-3149600D02*
G01*
X3880650Y-3149600D01*
X3917149Y-3403600D02*
G01*
X3880650Y-3403600D01*
X3917149Y-3657600D02*
G01*
X3880650Y-3657600D01*
X3917149Y-3911600D02*
G01*
X3880650Y-3911600D01*
X3917149Y-4165600D02*
G01*
X3880650Y-4165600D01*
X3917149Y-4419600D02*
G01*
X3880650Y-4419600D01*
X3917149Y-4673600D02*
G01*
X3880650Y-4673600D01*
X3917149Y-4927600D02*
G01*
X3880650Y-4927600D01*
X4679149Y-3149600D02*
G01*
X4642650Y-3149600D01*
X4679149Y-3403600D02*
G01*
X4642650Y-3403600D01*
X4679149Y-3657600D02*
G01*
X4642650Y-3657600D01*
X4679149Y-3911600D02*
G01*
X4642650Y-3911600D01*
X4679149Y-4165600D02*
G01*
X4642650Y-4165600D01*
X4679149Y-4419600D02*
G01*
X4642650Y-4419600D01*
X4679149Y-4673600D02*
G01*
X4642650Y-4673600D01*
X4679149Y-4927600D02*
G01*
X4642650Y-4927600D01*
X3942549Y-7785100D02*
G01*
X3906050Y-7785100D01*
X3942549Y-8039100D02*
G01*
X3906050Y-8039100D01*
X3942549Y-8293100D02*
G01*
X3906050Y-8293100D01*
X3942549Y-8547100D02*
G01*
X3906050Y-8547100D01*
X3942549Y-8801100D02*
G01*
X3906050Y-8801100D01*
X3942549Y-9055100D02*
G01*
X3906050Y-9055100D01*
X3942549Y-9309100D02*
G01*
X3906050Y-9309100D01*
X3942549Y-9563100D02*
G01*
X3906050Y-9563100D01*
X4704549Y-7785100D02*
G01*
X4668050Y-7785100D01*
X4704549Y-8039100D02*
G01*
X4668050Y-8039100D01*
X4704549Y-8293100D02*
G01*
X4668050Y-8293100D01*
X4704549Y-8547100D02*
G01*
X4668050Y-8547100D01*
X4704549Y-8801100D02*
G01*
X4668050Y-8801100D01*
X4704549Y-9055100D02*
G01*
X4668050Y-9055100D01*
X4704549Y-9309100D02*
G01*
X4668050Y-9309100D01*
X4704549Y-9563100D02*
G01*
X4668050Y-9563100D01*
M02*
