G04 Layer: BottomSolderMaskLayer*
G04 EasyEDA v6.5.1, 2022-05-03 13:26:15*
G04 Gerber Generator version 0.2*
G04 Scale: 100 percent, Rotated: No, Reflected: No *
G04 Dimensions in millimeters *
G04 leading zeros omitted , absolute positions ,4 integer and 5 decimal *
%FSLAX45Y45*%
%MOMM*%

%ADD26C,1.5616*%
%ADD27C,1.2032*%
%ADD29C,1.8016*%
%ADD30R,1.6764X1.6764*%
%ADD31C,1.6764*%
%ADD32C,1.9812*%

%LPD*%
D26*
X3917149Y-3149600D02*
G01*
X3880650Y-3149600D01*
X3917149Y-3403600D02*
G01*
X3880650Y-3403600D01*
X3917149Y-3657600D02*
G01*
X3880650Y-3657600D01*
X3917149Y-3911600D02*
G01*
X3880650Y-3911600D01*
X3917149Y-4165600D02*
G01*
X3880650Y-4165600D01*
X3917149Y-4419600D02*
G01*
X3880650Y-4419600D01*
X3917149Y-4673600D02*
G01*
X3880650Y-4673600D01*
X3917149Y-4927600D02*
G01*
X3880650Y-4927600D01*
X4679149Y-3149600D02*
G01*
X4642650Y-3149600D01*
X4679149Y-3403600D02*
G01*
X4642650Y-3403600D01*
X4679149Y-3657600D02*
G01*
X4642650Y-3657600D01*
X4679149Y-3911600D02*
G01*
X4642650Y-3911600D01*
X4679149Y-4165600D02*
G01*
X4642650Y-4165600D01*
X4679149Y-4419600D02*
G01*
X4642650Y-4419600D01*
X4679149Y-4673600D02*
G01*
X4642650Y-4673600D01*
X4679149Y-4927600D02*
G01*
X4642650Y-4927600D01*
X3942549Y-7785100D02*
G01*
X3906050Y-7785100D01*
X3942549Y-8039100D02*
G01*
X3906050Y-8039100D01*
X3942549Y-8293100D02*
G01*
X3906050Y-8293100D01*
X3942549Y-8547100D02*
G01*
X3906050Y-8547100D01*
X3942549Y-8801100D02*
G01*
X3906050Y-8801100D01*
X3942549Y-9055100D02*
G01*
X3906050Y-9055100D01*
X3942549Y-9309100D02*
G01*
X3906050Y-9309100D01*
X3942549Y-9563100D02*
G01*
X3906050Y-9563100D01*
X4704549Y-7785100D02*
G01*
X4668050Y-7785100D01*
X4704549Y-8039100D02*
G01*
X4668050Y-8039100D01*
X4704549Y-8293100D02*
G01*
X4668050Y-8293100D01*
X4704549Y-8547100D02*
G01*
X4668050Y-8547100D01*
X4704549Y-8801100D02*
G01*
X4668050Y-8801100D01*
X4704549Y-9055100D02*
G01*
X4668050Y-9055100D01*
X4704549Y-9309100D02*
G01*
X4668050Y-9309100D01*
X4704549Y-9563100D02*
G01*
X4668050Y-9563100D01*
D27*
G01*
X5637656Y-9156700D03*
G01*
X5487543Y-9156700D03*
G01*
X5637656Y-4572000D03*
G01*
X5487543Y-4572000D03*
G36*
X1770379Y-4306570D02*
G01*
X1770379Y-4126229D01*
X1938020Y-4126229D01*
X1938020Y-4306570D01*
G37*
D29*
G01*
X1854200Y-3962400D03*
G36*
X1262379Y-4039870D02*
G01*
X1262379Y-3859529D01*
X1430020Y-3859529D01*
X1430020Y-4039870D01*
G37*
G01*
X1346200Y-4203700D03*
G36*
X1338579Y-496570D02*
G01*
X1338579Y-316229D01*
X1506220Y-316229D01*
X1506220Y-496570D01*
G37*
G01*
X1422400Y-660400D03*
G36*
X1300479Y-2020570D02*
G01*
X1300479Y-1840229D01*
X1468120Y-1840229D01*
X1468120Y-2020570D01*
G37*
G01*
X1384300Y-2184400D03*
G36*
X1325879Y-8700770D02*
G01*
X1325879Y-8520429D01*
X1493520Y-8520429D01*
X1493520Y-8700770D01*
G37*
G01*
X1409700Y-8864600D03*
G36*
X1833879Y-8954770D02*
G01*
X1833879Y-8774429D01*
X2001520Y-8774429D01*
X2001520Y-8954770D01*
G37*
G01*
X1917700Y-8610600D03*
D30*
G01*
X1638300Y-6718300D03*
D31*
G01*
X1384300Y-6718300D03*
G01*
X1638300Y-6464300D03*
G01*
X1384300Y-6464300D03*
G01*
X1638300Y-6210300D03*
G01*
X1384300Y-6210300D03*
G01*
X1638300Y-5956300D03*
G01*
X1384300Y-5956300D03*
G36*
X1351279Y-1061720D02*
G01*
X1351279Y-894079D01*
X1518920Y-894079D01*
X1518920Y-1061720D01*
G37*
D30*
G01*
X1384300Y-2489200D03*
D31*
G01*
X4432300Y-393700D03*
G01*
X4178300Y-393700D03*
G36*
X3840479Y-477520D02*
G01*
X3840479Y-309879D01*
X4008120Y-309879D01*
X4008120Y-477520D01*
G37*
D32*
G01*
X2895600Y-889000D03*
G01*
X1879600Y-889000D03*
G01*
X4787900Y-5600700D03*
G01*
X3771900Y-5600700D03*
G01*
X4787900Y-6121400D03*
G01*
X3771900Y-6121400D03*
G01*
X4775200Y-6629400D03*
G01*
X3759200Y-6629400D03*
G01*
X4775200Y-7124700D03*
G01*
X3759200Y-7124700D03*
G01*
X2895600Y-2400300D03*
G01*
X1879600Y-2400300D03*
M02*
