G04 Layer: BottomLayer*
G04 EasyEDA v6.5.1, 2022-05-03 13:26:15*
G04 Gerber Generator version 0.2*
G04 Scale: 100 percent, Rotated: No, Reflected: No *
G04 Dimensions in millimeters *
G04 leading zeros omitted , absolute positions ,4 integer and 5 decimal *
%FSLAX45Y45*%
%MOMM*%

%ADD14C,1.0000*%
%ADD15R,1.5748X1.7000*%
%ADD16C,1.7000*%
%ADD17R,1.5748X1.5748*%
%ADD18C,1.5748*%
%ADD19C,1.8796*%
%ADD20C,1.4600*%

%LPD*%
D14*
G01*
X5637656Y-9156700D03*
G01*
X5487543Y-9156700D03*
G01*
X5637656Y-4572000D03*
G01*
X5487543Y-4572000D03*
D15*
G01*
X1854200Y-4216400D03*
D16*
G01*
X1854200Y-3962400D03*
D15*
G01*
X1346200Y-3949700D03*
D16*
G01*
X1346200Y-4203700D03*
D15*
G01*
X1422400Y-406400D03*
D16*
G01*
X1422400Y-660400D03*
D15*
G01*
X1384300Y-1930400D03*
D16*
G01*
X1384300Y-2184400D03*
D15*
G01*
X1409700Y-8610600D03*
D16*
G01*
X1409700Y-8864600D03*
D15*
G01*
X1917700Y-8864600D03*
D16*
G01*
X1917700Y-8610600D03*
D17*
G01*
X1638300Y-6718300D03*
D18*
G01*
X1384300Y-6718300D03*
G01*
X1638300Y-6464300D03*
G01*
X1384300Y-6464300D03*
G01*
X1638300Y-6210300D03*
G01*
X1384300Y-6210300D03*
G01*
X1638300Y-5956300D03*
G01*
X1384300Y-5956300D03*
D17*
G01*
X1435100Y-977900D03*
G01*
X1384300Y-2489200D03*
D18*
G01*
X4432300Y-393700D03*
G01*
X4178300Y-393700D03*
G36*
X3845559Y-314960D02*
G01*
X4003040Y-314960D01*
X4003040Y-472439D01*
X3845559Y-472439D01*
G37*
D19*
G01*
X2895600Y-889000D03*
G01*
X1879600Y-889000D03*
G01*
X4787900Y-5600700D03*
G01*
X3771900Y-5600700D03*
G01*
X4787900Y-6121400D03*
G01*
X3771900Y-6121400D03*
G01*
X4775200Y-6629400D03*
G01*
X3759200Y-6629400D03*
G01*
X4775200Y-7124700D03*
G01*
X3759200Y-7124700D03*
G01*
X2895600Y-2400300D03*
G01*
X1879600Y-2400300D03*
D20*
X3917149Y-3149600D02*
G01*
X3880650Y-3149600D01*
X3917149Y-3403600D02*
G01*
X3880650Y-3403600D01*
X3917149Y-3657600D02*
G01*
X3880650Y-3657600D01*
X3917149Y-3911600D02*
G01*
X3880650Y-3911600D01*
X3917149Y-4165600D02*
G01*
X3880650Y-4165600D01*
X3917149Y-4419600D02*
G01*
X3880650Y-4419600D01*
X3917149Y-4673600D02*
G01*
X3880650Y-4673600D01*
X3917149Y-4927600D02*
G01*
X3880650Y-4927600D01*
X4679149Y-3149600D02*
G01*
X4642650Y-3149600D01*
X4679149Y-3403600D02*
G01*
X4642650Y-3403600D01*
X4679149Y-3657600D02*
G01*
X4642650Y-3657600D01*
X4679149Y-3911600D02*
G01*
X4642650Y-3911600D01*
X4679149Y-4165600D02*
G01*
X4642650Y-4165600D01*
X4679149Y-4419600D02*
G01*
X4642650Y-4419600D01*
X4679149Y-4673600D02*
G01*
X4642650Y-4673600D01*
X4679149Y-4927600D02*
G01*
X4642650Y-4927600D01*
X3942549Y-7785100D02*
G01*
X3906050Y-7785100D01*
X3942549Y-8039100D02*
G01*
X3906050Y-8039100D01*
X3942549Y-8293100D02*
G01*
X3906050Y-8293100D01*
X3942549Y-8547100D02*
G01*
X3906050Y-8547100D01*
X3942549Y-8801100D02*
G01*
X3906050Y-8801100D01*
X3942549Y-9055100D02*
G01*
X3906050Y-9055100D01*
X3942549Y-9309100D02*
G01*
X3906050Y-9309100D01*
X3942549Y-9563100D02*
G01*
X3906050Y-9563100D01*
X4704549Y-7785100D02*
G01*
X4668050Y-7785100D01*
X4704549Y-8039100D02*
G01*
X4668050Y-8039100D01*
X4704549Y-8293100D02*
G01*
X4668050Y-8293100D01*
X4704549Y-8547100D02*
G01*
X4668050Y-8547100D01*
X4704549Y-8801100D02*
G01*
X4668050Y-8801100D01*
X4704549Y-9055100D02*
G01*
X4668050Y-9055100D01*
X4704549Y-9309100D02*
G01*
X4668050Y-9309100D01*
X4704549Y-9563100D02*
G01*
X4668050Y-9563100D01*
M02*
