G04 Layer: TopSilkscreenLayer*
G04 EasyEDA v6.5.1, 2022-05-03 13:26:15*
G04 Gerber Generator version 0.2*
G04 Scale: 100 percent, Rotated: No, Reflected: No *
G04 Dimensions in millimeters *
G04 leading zeros omitted , absolute positions ,4 integer and 5 decimal *
%FSLAX45Y45*%
%MOMM*%

%ADD10C,0.2540*%
%ADD21C,0.0800*%
%ADD22C,0.2030*%
%ADD23C,0.2032*%
%ADD24C,0.1524*%
%ADD25C,0.3000*%

%LPD*%
D24*
X5633933Y-8894988D02*
G01*
X5628599Y-8884574D01*
X5618185Y-8874160D01*
X5608025Y-8869080D01*
X5587197Y-8869080D01*
X5576783Y-8874160D01*
X5566369Y-8884574D01*
X5561035Y-8894988D01*
X5555955Y-8910736D01*
X5555955Y-8936644D01*
X5561035Y-8952138D01*
X5566369Y-8962552D01*
X5576783Y-8972966D01*
X5587197Y-8978046D01*
X5608025Y-8978046D01*
X5618185Y-8972966D01*
X5628599Y-8962552D01*
X5633933Y-8952138D01*
X5720039Y-8869080D02*
G01*
X5668223Y-8941724D01*
X5746201Y-8941724D01*
X5720039Y-8869080D02*
G01*
X5720039Y-8978046D01*
X5633933Y-4310288D02*
G01*
X5628599Y-4299874D01*
X5618185Y-4289460D01*
X5608025Y-4284380D01*
X5587197Y-4284380D01*
X5576783Y-4289460D01*
X5566369Y-4299874D01*
X5561035Y-4310288D01*
X5555955Y-4326036D01*
X5555955Y-4351944D01*
X5561035Y-4367438D01*
X5566369Y-4377852D01*
X5576783Y-4388266D01*
X5587197Y-4393346D01*
X5608025Y-4393346D01*
X5618185Y-4388266D01*
X5628599Y-4377852D01*
X5633933Y-4367438D01*
X5730453Y-4284380D02*
G01*
X5678637Y-4284380D01*
X5673303Y-4331116D01*
X5678637Y-4326036D01*
X5694131Y-4320702D01*
X5709625Y-4320702D01*
X5725373Y-4326036D01*
X5735787Y-4336196D01*
X5740867Y-4351944D01*
X5740867Y-4362358D01*
X5735787Y-4377852D01*
X5725373Y-4388266D01*
X5709625Y-4393346D01*
X5694131Y-4393346D01*
X5678637Y-4388266D01*
X5673303Y-4383186D01*
X5668223Y-4372772D01*
X1599184Y-4050029D02*
G01*
X1682242Y-4050029D01*
X1697989Y-4055363D01*
X1703070Y-4060444D01*
X1708150Y-4070857D01*
X1708150Y-4081271D01*
X1703070Y-4091686D01*
X1697989Y-4097020D01*
X1682242Y-4102100D01*
X1671828Y-4102100D01*
X1625092Y-4010660D02*
G01*
X1620012Y-4010660D01*
X1609597Y-4005579D01*
X1604263Y-4000245D01*
X1599184Y-3989831D01*
X1599184Y-3969004D01*
X1604263Y-3958589D01*
X1609597Y-3953510D01*
X1620012Y-3948429D01*
X1630426Y-3948429D01*
X1640839Y-3953510D01*
X1656334Y-3963923D01*
X1708150Y-4015739D01*
X1708150Y-3943095D01*
X1601215Y-4116070D02*
G01*
X1518157Y-4116070D01*
X1502410Y-4110736D01*
X1497329Y-4105655D01*
X1492250Y-4095242D01*
X1492250Y-4084828D01*
X1497329Y-4074413D01*
X1502410Y-4069079D01*
X1518157Y-4064000D01*
X1528571Y-4064000D01*
X1601215Y-4160520D02*
G01*
X1601215Y-4217670D01*
X1559560Y-4186681D01*
X1559560Y-4202176D01*
X1554479Y-4212589D01*
X1549400Y-4217670D01*
X1533652Y-4223004D01*
X1523237Y-4223004D01*
X1507744Y-4217670D01*
X1497329Y-4207510D01*
X1492250Y-4191762D01*
X1492250Y-4176268D01*
X1497329Y-4160520D01*
X1502410Y-4155439D01*
X1512823Y-4150360D01*
X1677415Y-572770D02*
G01*
X1594357Y-572770D01*
X1578610Y-567436D01*
X1573529Y-562355D01*
X1568450Y-551942D01*
X1568450Y-541528D01*
X1573529Y-531113D01*
X1578610Y-525779D01*
X1594357Y-520700D01*
X1604771Y-520700D01*
X1677415Y-658876D02*
G01*
X1604771Y-607060D01*
X1604771Y-684784D01*
X1677415Y-658876D02*
G01*
X1568450Y-658876D01*
X1639315Y-2096770D02*
G01*
X1556257Y-2096770D01*
X1540510Y-2091436D01*
X1535429Y-2086355D01*
X1530350Y-2075942D01*
X1530350Y-2065528D01*
X1535429Y-2055113D01*
X1540510Y-2049779D01*
X1556257Y-2044700D01*
X1566671Y-2044700D01*
X1639315Y-2203704D02*
G01*
X1530350Y-2151634D01*
X1639315Y-2131060D02*
G01*
X1639315Y-2203704D01*
X1664715Y-8776970D02*
G01*
X1581657Y-8776970D01*
X1565910Y-8771636D01*
X1560829Y-8766555D01*
X1555750Y-8756142D01*
X1555750Y-8745728D01*
X1560829Y-8735313D01*
X1565910Y-8729979D01*
X1581657Y-8724900D01*
X1592071Y-8724900D01*
X1643887Y-8811260D02*
G01*
X1649221Y-8821420D01*
X1664715Y-8837168D01*
X1555750Y-8837168D01*
X1638807Y-8876537D02*
G01*
X1643887Y-8876537D01*
X1654302Y-8881871D01*
X1659636Y-8886952D01*
X1664715Y-8897365D01*
X1664715Y-8918194D01*
X1659636Y-8928608D01*
X1654302Y-8933687D01*
X1643887Y-8939021D01*
X1633473Y-8939021D01*
X1623060Y-8933687D01*
X1607565Y-8923274D01*
X1555750Y-8871458D01*
X1555750Y-8944102D01*
X1573784Y-8710929D02*
G01*
X1656842Y-8710929D01*
X1672589Y-8716263D01*
X1677670Y-8721344D01*
X1682750Y-8731758D01*
X1682750Y-8742171D01*
X1677670Y-8752586D01*
X1672589Y-8757920D01*
X1656842Y-8763000D01*
X1646428Y-8763000D01*
X1594612Y-8676639D02*
G01*
X1589278Y-8666479D01*
X1573784Y-8650731D01*
X1682750Y-8650731D01*
X1573784Y-8554212D02*
G01*
X1573784Y-8606028D01*
X1620520Y-8611362D01*
X1615439Y-8606028D01*
X1610105Y-8590534D01*
X1610105Y-8575039D01*
X1615439Y-8559292D01*
X1625600Y-8548878D01*
X1641347Y-8543797D01*
X1651762Y-8543797D01*
X1667255Y-8548878D01*
X1677670Y-8559292D01*
X1682750Y-8575039D01*
X1682750Y-8590534D01*
X1677670Y-8606028D01*
X1672589Y-8611362D01*
X1662176Y-8616442D01*
X1116584Y-6310629D02*
G01*
X1199642Y-6310629D01*
X1215389Y-6315963D01*
X1220470Y-6321044D01*
X1225550Y-6331457D01*
X1225550Y-6341871D01*
X1220470Y-6352286D01*
X1215389Y-6357620D01*
X1199642Y-6362700D01*
X1189228Y-6362700D01*
X1132078Y-6214110D02*
G01*
X1121663Y-6219189D01*
X1116584Y-6234937D01*
X1116584Y-6245352D01*
X1121663Y-6260845D01*
X1137412Y-6271260D01*
X1163320Y-6276339D01*
X1189228Y-6276339D01*
X1210055Y-6271260D01*
X1220470Y-6260845D01*
X1225550Y-6245352D01*
X1225550Y-6240018D01*
X1220470Y-6224523D01*
X1210055Y-6214110D01*
X1194562Y-6209029D01*
X1189228Y-6209029D01*
X1173734Y-6214110D01*
X1163320Y-6224523D01*
X1158239Y-6240018D01*
X1158239Y-6245352D01*
X1163320Y-6260845D01*
X1173734Y-6271260D01*
X1189228Y-6276339D01*
X1692655Y-1029970D02*
G01*
X1609597Y-1029970D01*
X1593850Y-1024636D01*
X1588770Y-1019555D01*
X1583689Y-1009142D01*
X1583689Y-998728D01*
X1588770Y-988313D01*
X1593850Y-982979D01*
X1609597Y-977900D01*
X1620012Y-977900D01*
X1671828Y-1064260D02*
G01*
X1677162Y-1074420D01*
X1692655Y-1090168D01*
X1583689Y-1090168D01*
X1692655Y-1155700D02*
G01*
X1687576Y-1139952D01*
X1671828Y-1129537D01*
X1645920Y-1124457D01*
X1630426Y-1124457D01*
X1604263Y-1129537D01*
X1588770Y-1139952D01*
X1583689Y-1155700D01*
X1583689Y-1165860D01*
X1588770Y-1181607D01*
X1604263Y-1192021D01*
X1630426Y-1197102D01*
X1645920Y-1197102D01*
X1671828Y-1192021D01*
X1687576Y-1181607D01*
X1692655Y-1165860D01*
X1692655Y-1155700D01*
X1639315Y-2439670D02*
G01*
X1556257Y-2439670D01*
X1540510Y-2434336D01*
X1535429Y-2429255D01*
X1530350Y-2418842D01*
X1530350Y-2408428D01*
X1535429Y-2398013D01*
X1540510Y-2392679D01*
X1556257Y-2387600D01*
X1566671Y-2387600D01*
X1618487Y-2473960D02*
G01*
X1623821Y-2484120D01*
X1639315Y-2499868D01*
X1530350Y-2499868D01*
X1639315Y-2585973D02*
G01*
X1566671Y-2534157D01*
X1566671Y-2612136D01*
X1639315Y-2585973D02*
G01*
X1530350Y-2585973D01*
X4166870Y-621284D02*
G01*
X4166870Y-704342D01*
X4161536Y-720089D01*
X4156456Y-725170D01*
X4146041Y-730250D01*
X4135627Y-730250D01*
X4125213Y-725170D01*
X4119879Y-720089D01*
X4114800Y-704342D01*
X4114800Y-693928D01*
X4201159Y-642112D02*
G01*
X4211320Y-636778D01*
X4227068Y-621284D01*
X4227068Y-730250D01*
X4271772Y-621284D02*
G01*
X4328922Y-621284D01*
X4297679Y-662939D01*
X4313174Y-662939D01*
X4323588Y-668020D01*
X4328922Y-673100D01*
X4334002Y-688847D01*
X4334002Y-699262D01*
X4328922Y-714755D01*
X4318508Y-725170D01*
X4302759Y-730250D01*
X4287265Y-730250D01*
X4271772Y-725170D01*
X4266438Y-720089D01*
X4261358Y-709676D01*
X2387600Y-1156715D02*
G01*
X2387600Y-1047750D01*
X2387600Y-1156715D02*
G01*
X2340863Y-1156715D01*
X2325370Y-1151636D01*
X2320036Y-1146302D01*
X2314956Y-1135887D01*
X2314956Y-1125473D01*
X2320036Y-1115060D01*
X2325370Y-1109979D01*
X2340863Y-1104900D01*
X2387600Y-1104900D01*
X2351277Y-1104900D02*
G01*
X2314956Y-1047750D01*
X2280665Y-1135887D02*
G01*
X2270252Y-1141221D01*
X2254504Y-1156715D01*
X2254504Y-1047750D01*
X4279900Y-5868415D02*
G01*
X4279900Y-5759450D01*
X4279900Y-5868415D02*
G01*
X4233163Y-5868415D01*
X4217670Y-5863336D01*
X4212336Y-5858002D01*
X4207256Y-5847587D01*
X4207256Y-5837173D01*
X4212336Y-5826760D01*
X4217670Y-5821679D01*
X4233163Y-5816600D01*
X4279900Y-5816600D01*
X4243577Y-5816600D02*
G01*
X4207256Y-5759450D01*
X4110481Y-5868415D02*
G01*
X4162552Y-5868415D01*
X4167631Y-5821679D01*
X4162552Y-5826760D01*
X4146804Y-5832094D01*
X4131309Y-5832094D01*
X4115815Y-5826760D01*
X4105402Y-5816600D01*
X4100068Y-5800852D01*
X4100068Y-5790437D01*
X4105402Y-5774944D01*
X4115815Y-5764529D01*
X4131309Y-5759450D01*
X4146804Y-5759450D01*
X4162552Y-5764529D01*
X4167631Y-5769610D01*
X4172965Y-5780023D01*
X4279900Y-6389115D02*
G01*
X4279900Y-6280150D01*
X4279900Y-6389115D02*
G01*
X4233163Y-6389115D01*
X4217670Y-6384036D01*
X4212336Y-6378702D01*
X4207256Y-6368287D01*
X4207256Y-6357873D01*
X4212336Y-6347460D01*
X4217670Y-6342379D01*
X4233163Y-6337300D01*
X4279900Y-6337300D01*
X4243577Y-6337300D02*
G01*
X4207256Y-6280150D01*
X4110481Y-6373621D02*
G01*
X4115815Y-6384036D01*
X4131309Y-6389115D01*
X4141724Y-6389115D01*
X4157218Y-6384036D01*
X4167631Y-6368287D01*
X4172965Y-6342379D01*
X4172965Y-6316471D01*
X4167631Y-6295644D01*
X4157218Y-6285229D01*
X4141724Y-6280150D01*
X4136390Y-6280150D01*
X4120895Y-6285229D01*
X4110481Y-6295644D01*
X4105402Y-6311137D01*
X4105402Y-6316471D01*
X4110481Y-6331965D01*
X4120895Y-6342379D01*
X4136390Y-6347460D01*
X4141724Y-6347460D01*
X4157218Y-6342379D01*
X4167631Y-6331965D01*
X4172965Y-6316471D01*
X4267200Y-6897115D02*
G01*
X4267200Y-6788150D01*
X4267200Y-6897115D02*
G01*
X4220463Y-6897115D01*
X4204970Y-6892036D01*
X4199636Y-6886702D01*
X4194556Y-6876287D01*
X4194556Y-6865873D01*
X4199636Y-6855460D01*
X4204970Y-6850379D01*
X4220463Y-6845300D01*
X4267200Y-6845300D01*
X4230877Y-6845300D02*
G01*
X4194556Y-6788150D01*
X4087368Y-6897115D02*
G01*
X4139438Y-6788150D01*
X4160265Y-6897115D02*
G01*
X4087368Y-6897115D01*
X4267200Y-7392415D02*
G01*
X4267200Y-7283450D01*
X4267200Y-7392415D02*
G01*
X4220463Y-7392415D01*
X4204970Y-7387336D01*
X4199636Y-7382002D01*
X4194556Y-7371587D01*
X4194556Y-7361173D01*
X4199636Y-7350760D01*
X4204970Y-7345679D01*
X4220463Y-7340600D01*
X4267200Y-7340600D01*
X4230877Y-7340600D02*
G01*
X4194556Y-7283450D01*
X4134104Y-7392415D02*
G01*
X4149852Y-7387336D01*
X4154931Y-7376921D01*
X4154931Y-7366508D01*
X4149852Y-7356094D01*
X4139438Y-7350760D01*
X4118609Y-7345679D01*
X4103115Y-7340600D01*
X4092702Y-7330186D01*
X4087368Y-7319771D01*
X4087368Y-7304023D01*
X4092702Y-7293610D01*
X4097781Y-7288529D01*
X4113529Y-7283450D01*
X4134104Y-7283450D01*
X4149852Y-7288529D01*
X4154931Y-7293610D01*
X4160265Y-7304023D01*
X4160265Y-7319771D01*
X4154931Y-7330186D01*
X4144518Y-7340600D01*
X4129024Y-7345679D01*
X4108195Y-7350760D01*
X4097781Y-7356094D01*
X4092702Y-7366508D01*
X4092702Y-7376921D01*
X4097781Y-7387336D01*
X4113529Y-7392415D01*
X4134104Y-7392415D01*
X2387600Y-2668015D02*
G01*
X2387600Y-2559050D01*
X2387600Y-2668015D02*
G01*
X2340863Y-2668015D01*
X2325370Y-2662936D01*
X2320036Y-2657602D01*
X2314956Y-2647187D01*
X2314956Y-2636773D01*
X2320036Y-2626360D01*
X2325370Y-2621279D01*
X2340863Y-2616200D01*
X2387600Y-2616200D01*
X2351277Y-2616200D02*
G01*
X2314956Y-2559050D01*
X2213102Y-2631694D02*
G01*
X2218181Y-2616200D01*
X2228595Y-2605786D01*
X2244090Y-2600452D01*
X2249424Y-2600452D01*
X2264918Y-2605786D01*
X2275331Y-2616200D01*
X2280665Y-2631694D01*
X2280665Y-2636773D01*
X2275331Y-2652521D01*
X2264918Y-2662936D01*
X2249424Y-2668015D01*
X2244090Y-2668015D01*
X2228595Y-2662936D01*
X2218181Y-2652521D01*
X2213102Y-2631694D01*
X2213102Y-2605786D01*
X2218181Y-2579623D01*
X2228595Y-2564129D01*
X2244090Y-2559050D01*
X2254504Y-2559050D01*
X2270252Y-2564129D01*
X2275331Y-2574544D01*
X4877815Y-4013200D02*
G01*
X4799838Y-4013200D01*
X4784343Y-4018279D01*
X4773929Y-4028694D01*
X4768850Y-4044442D01*
X4768850Y-4054855D01*
X4773929Y-4070350D01*
X4784343Y-4080763D01*
X4799838Y-4085844D01*
X4877815Y-4085844D01*
X4856988Y-4120134D02*
G01*
X4862322Y-4130547D01*
X4877815Y-4146295D01*
X4768850Y-4146295D01*
X4903215Y-8648700D02*
G01*
X4825238Y-8648700D01*
X4809743Y-8653779D01*
X4799329Y-8664194D01*
X4794250Y-8679942D01*
X4794250Y-8690355D01*
X4799329Y-8705850D01*
X4809743Y-8716263D01*
X4825238Y-8721344D01*
X4903215Y-8721344D01*
X4903215Y-8818118D02*
G01*
X4903215Y-8766047D01*
X4856479Y-8760968D01*
X4861559Y-8766047D01*
X4866893Y-8781795D01*
X4866893Y-8797289D01*
X4861559Y-8812784D01*
X4851400Y-8823197D01*
X4835652Y-8828531D01*
X4825238Y-8828531D01*
X4809743Y-8823197D01*
X4799329Y-8812784D01*
X4794250Y-8797289D01*
X4794250Y-8781795D01*
X4799329Y-8766047D01*
X4804409Y-8760968D01*
X4814824Y-8755634D01*
G36*
X5567680Y-9006687D02*
G01*
X5567629Y-9306712D01*
X5578754Y-9305493D01*
X5589727Y-9303512D01*
X5600496Y-9300718D01*
X5611063Y-9297111D01*
X5621324Y-9292742D01*
X5631230Y-9287611D01*
X5640730Y-9281769D01*
X5649772Y-9275267D01*
X5658307Y-9268104D01*
X5666282Y-9260281D01*
X5673648Y-9251950D01*
X5680354Y-9243060D01*
X5686450Y-9233712D01*
X5691784Y-9223908D01*
X5696407Y-9213748D01*
X5700268Y-9203283D01*
X5703316Y-9192564D01*
X5705551Y-9181693D01*
X5707024Y-9170619D01*
X5707634Y-9159494D01*
X5707430Y-9148318D01*
X5706364Y-9137243D01*
X5704535Y-9126220D01*
X5701893Y-9115399D01*
X5698439Y-9104833D01*
X5694172Y-9094520D01*
X5689193Y-9084513D01*
X5683504Y-9074962D01*
X5677103Y-9065818D01*
X5670042Y-9057182D01*
X5662320Y-9049105D01*
X5654090Y-9041638D01*
X5645302Y-9034780D01*
X5636006Y-9028582D01*
X5626303Y-9023096D01*
X5616244Y-9018371D01*
X5605830Y-9014358D01*
X5595112Y-9011158D01*
X5584240Y-9008770D01*
X5578754Y-9007856D01*
G37*
G36*
X5567680Y-4421987D02*
G01*
X5567629Y-4722012D01*
X5578754Y-4720793D01*
X5589727Y-4718812D01*
X5600496Y-4716018D01*
X5611063Y-4712411D01*
X5621324Y-4708042D01*
X5631230Y-4702911D01*
X5640730Y-4697069D01*
X5649772Y-4690567D01*
X5658307Y-4683404D01*
X5666282Y-4675581D01*
X5673648Y-4667250D01*
X5680354Y-4658360D01*
X5686450Y-4649012D01*
X5691784Y-4639208D01*
X5696407Y-4629048D01*
X5700268Y-4618583D01*
X5703316Y-4607864D01*
X5705551Y-4596993D01*
X5707024Y-4585919D01*
X5707634Y-4574794D01*
X5707430Y-4563618D01*
X5706364Y-4552543D01*
X5704535Y-4541520D01*
X5701893Y-4530699D01*
X5698439Y-4520133D01*
X5694172Y-4509820D01*
X5689193Y-4499813D01*
X5683504Y-4490262D01*
X5677103Y-4481118D01*
X5670042Y-4472482D01*
X5662320Y-4464405D01*
X5654090Y-4456938D01*
X5645302Y-4450080D01*
X5636006Y-4443882D01*
X5626303Y-4438396D01*
X5616244Y-4433671D01*
X5605830Y-4429658D01*
X5595112Y-4426458D01*
X5584240Y-4424070D01*
X5578754Y-4423156D01*
G37*
D21*
X5497598Y-9061701D02*
G01*
X5547598Y-9061701D01*
X5522600Y-9086700D02*
G01*
X5522600Y-9036700D01*
X5497598Y-4477001D02*
G01*
X5547598Y-4477001D01*
X5522600Y-4502000D02*
G01*
X5522600Y-4452000D01*
D22*
X1727200Y-3835400D02*
G01*
X1727200Y-4152900D01*
D23*
X1727200Y-3835400D02*
G01*
X1981200Y-3835400D01*
X1981200Y-4343400D01*
X1727200Y-4343400D01*
X1727200Y-4152900D01*
D22*
X1473200Y-4330700D02*
G01*
X1473200Y-4013200D01*
D23*
X1473200Y-4330700D02*
G01*
X1219200Y-4330700D01*
X1219200Y-3822700D01*
X1473200Y-3822700D01*
X1473200Y-4013200D01*
D22*
X1549400Y-787400D02*
G01*
X1549400Y-469900D01*
D23*
X1549400Y-787400D02*
G01*
X1295400Y-787400D01*
X1295400Y-279400D01*
X1549400Y-279400D01*
X1549400Y-469900D01*
D22*
X1511300Y-2311400D02*
G01*
X1511300Y-1993900D01*
D23*
X1511300Y-2311400D02*
G01*
X1257300Y-2311400D01*
X1257300Y-1803400D01*
X1511300Y-1803400D01*
X1511300Y-1993900D01*
D22*
X1536700Y-8991600D02*
G01*
X1536700Y-8674100D01*
D23*
X1536700Y-8991600D02*
G01*
X1282700Y-8991600D01*
X1282700Y-8483600D01*
X1536700Y-8483600D01*
X1536700Y-8674100D01*
D22*
X1790700Y-8483600D02*
G01*
X1790700Y-8801100D01*
D23*
X1790700Y-8483600D02*
G01*
X2044700Y-8483600D01*
X2044700Y-8991600D01*
X1790700Y-8991600D01*
X1790700Y-8801100D01*
X1257300Y-6845300D02*
G01*
X1765300Y-6845300D01*
X1765300Y-5829300D01*
X1257300Y-5829300D01*
X1257300Y-6845300D01*
X1308100Y-1104900D02*
G01*
X1308100Y-850900D01*
X1562100Y-850900D01*
X1562100Y-1104900D01*
X1371600Y-1104900D01*
D22*
X1308100Y-1104900D02*
G01*
X1371600Y-1104900D01*
D23*
X1257300Y-2362200D02*
G01*
X1511300Y-2362200D01*
X1511300Y-2616200D01*
X1257300Y-2616200D01*
X1257300Y-2425700D01*
D22*
X1257300Y-2362200D02*
G01*
X1257300Y-2425700D01*
D23*
X3987800Y-266700D02*
G01*
X3797300Y-266700D01*
X3797300Y-520700D01*
X4559300Y-520700D01*
X4559300Y-266700D01*
D22*
X4559300Y-266700D02*
G01*
X3987800Y-266700D01*
D10*
X2702559Y-769620D02*
G01*
X2702559Y-1008379D01*
X2702559Y-1008379D02*
G01*
X2072640Y-1008379D01*
X2072640Y-1008379D02*
G01*
X2072640Y-769620D01*
X2072640Y-769620D02*
G01*
X2702559Y-769620D01*
X4594859Y-5481320D02*
G01*
X4594859Y-5720079D01*
X4594859Y-5720079D02*
G01*
X3964940Y-5720079D01*
X3964940Y-5720079D02*
G01*
X3964940Y-5481320D01*
X3964940Y-5481320D02*
G01*
X4594859Y-5481320D01*
X4594859Y-6002020D02*
G01*
X4594859Y-6240779D01*
X4594859Y-6240779D02*
G01*
X3964940Y-6240779D01*
X3964940Y-6240779D02*
G01*
X3964940Y-6002020D01*
X3964940Y-6002020D02*
G01*
X4594859Y-6002020D01*
X4582159Y-6510020D02*
G01*
X4582159Y-6748779D01*
X4582159Y-6748779D02*
G01*
X3952240Y-6748779D01*
X3952240Y-6748779D02*
G01*
X3952240Y-6510020D01*
X3952240Y-6510020D02*
G01*
X4582159Y-6510020D01*
X4582159Y-7005320D02*
G01*
X4582159Y-7244079D01*
X4582159Y-7244079D02*
G01*
X3952240Y-7244079D01*
X3952240Y-7244079D02*
G01*
X3952240Y-7005320D01*
X3952240Y-7005320D02*
G01*
X4582159Y-7005320D01*
X2702559Y-2280920D02*
G01*
X2702559Y-2519679D01*
X2702559Y-2519679D02*
G01*
X2072640Y-2519679D01*
X2072640Y-2519679D02*
G01*
X2072640Y-2280920D01*
X2072640Y-2280920D02*
G01*
X2702559Y-2280920D01*
D24*
X4013009Y-3065729D02*
G01*
X4546790Y-3065729D01*
X4546790Y-5011470D01*
X4013009Y-5011470D01*
X4013009Y-3065729D01*
X4038409Y-7701229D02*
G01*
X4572190Y-7701229D01*
X4572190Y-9646970D01*
X4038409Y-9646970D01*
X4038409Y-7701229D01*
G75*
G01*
X4359275Y-3065729D02*
G02*
X4200525Y-3065729I-79375J0D01*
G75*
G01*
X4384675Y-7701229D02*
G02*
X4225925Y-7701229I-79375J0D01*
D10*
G75*
G01
X5712663Y-9156700D02*
G03X5712663Y-9156700I-150012J0D01*
G75*
G01
X5712663Y-4572000D02*
G03X5712663Y-4572000I-150012J0D01*
D25*
G75*
G01
X3913911Y-3031363D02*
G03X3913911Y-3031363I-15011J0D01*
G75*
G01
X3939311Y-7666863D02*
G03X3939311Y-7666863I-15011J0D01*
M02*
