M48
METRIC,LZ,000.000
;FILE_FORMAT=3:3
;TYPE=PLATED
;Layer: PTH_Through
;EasyEDA v6.5.1, 2022-05-03 13:15:28
;10
;Gerber Generator version 0.2
;Holesize 1 = 0.701 mm
T01C0.701
;Holesize 2 = 0.800 mm
T02C0.800
;Holesize 3 = 0.889 mm
T03C0.889
;Holesize 4 = 0.900 mm
T04C0.900
;Holesize 5 = 1.016 mm
T05C1.016
;Holesize 6 = 1.101 mm
T06C1.101
%
G05
G90
T01
X099822Y006720
X099822Y005218
X071882Y006593
X071882Y005091
X046609Y006974
X046609Y005472
X127762Y004561
X127762Y003059
T02
X145923Y000000
X143383Y000000
X140843Y000000
X138303Y000000
X135763Y000000
X133223Y000000
X130683Y000000
X128143Y000000
X145923Y-007620
X143383Y-007620
X140843Y-007620
X138303Y-007620
X135763Y-007620
X133223Y-007620
X130683Y-007620
X128143Y-007620
X119126Y000000
X116586Y000000
X114046Y000000
X111506Y000000
X108966Y000000
X106426Y000000
X103886Y000000
X101346Y000000
X119126Y-007620
X116586Y-007620
X114046Y-007620
X111506Y-007620
X108966Y-007620
X106426Y-007620
X103886Y-007620
X101346Y-007620
X064643Y-001143
X062103Y-001143
X059563Y-001143
X057023Y-001143
X054483Y-001143
X051943Y-001143
X049403Y-001143
X046863Y-001143
X064643Y-008763
X062103Y-008763
X059563Y-008763
X057023Y-008763
X054483Y-008763
X051943Y-008763
X049403Y-008763
X046863Y-008763
X091059Y000254
X088519Y000254
X085979Y000254
X083439Y000254
X080899Y000254
X078359Y000254
X075819Y000254
X073279Y000254
X091059Y-007366
X088519Y-007366
X085979Y-007366
X083439Y-007366
X080899Y-007366
X078359Y-007366
X075819Y-007366
X073279Y-007366
T03
X021590Y039624
X021590Y042164
X021590Y044704
X021590Y047244
X021717Y018923
X021590Y024003
X021590Y029210
X021717Y034163
X150114Y076962
X150114Y079502
X152654Y076962
X152654Y079502
X155194Y076962
X155194Y079502
X157734Y076962
X157734Y079502
X021844Y-017653
X024384Y-017653
X026924Y-017653
T04
X099822Y067183
X109982Y067183
X084455Y067183
X094615Y067183
X069342Y067183
X079502Y067183
X054102Y067437
X064262Y067437
X160020Y062611
X160020Y072771
X155829Y062484
X155829Y072644
X150876Y062484
X150876Y072644
X145669Y062738
X145669Y072898
T05
X064643Y075311
X062103Y075311
X059563Y075311
X057023Y075311
X054483Y075311
X051943Y075311
X049403Y075311
X067183Y075311
X069723Y027051
X067183Y027051
X064643Y027051
X062103Y027051
X059563Y027051
X057023Y027051
X054483Y027051
X072263Y027051
X087503Y075311
X084963Y075311
X082423Y075311
X079883Y075311
X077343Y075311
X074803Y075311
X072263Y075311
X090043Y075311
X092583Y027051
X090043Y027051
X087503Y027051
X084963Y027051
X082423Y027051
X079883Y027051
X077343Y027051
X095123Y027051
X114427Y027051
X111887Y027051
X109347Y027051
X106807Y027051
X104267Y027051
X101727Y027051
X099187Y027051
X116967Y027051
X044323Y047371
X046863Y047371
X044323Y044831
X046863Y044831
X044323Y042291
X046863Y042291
X044323Y039751
X046863Y039751
X044323Y037211
X046863Y037211
X044323Y034671
X046863Y034671
X044323Y032131
X046863Y032131
X044323Y029591
X046863Y029591
X044323Y067691
X046863Y067691
X044323Y065151
X046863Y065151
X044323Y062611
X046863Y062611
X044323Y060071
X046863Y060071
X044323Y057531
X046863Y057531
X044323Y054991
X046863Y054991
X044323Y052451
X046863Y052451
X044323Y049911
X046863Y049911
X046863Y070231
X044323Y070231
X046863Y027051
X044323Y027051
X107823Y075311
X105283Y075311
X102743Y075311
X100203Y075311
X097663Y075311
X095123Y075311
X119507Y027051
X122047Y027051
X112903Y075311
X110363Y075311
X077216Y047371
X074676Y047371
X077216Y049911
X074676Y049911
X077216Y052451
X074676Y052451
T06
X134493Y-018288
X137033Y-018288
X106426Y-018542
X108966Y-018542
X050673Y-018034
X053213Y-018034
X078486Y-018288
X081026Y-018288
M30
