G04 Layer: BottomLayer*
G04 EasyEDA v6.5.1, 2022-05-03 13:15:28*
G04 Gerber Generator version 0.2*
G04 Scale: 100 percent, Rotated: No, Reflected: No *
G04 Dimensions in millimeters *
G04 leading zeros omitted , absolute positions ,4 integer and 5 decimal *
%FSLAX45Y45*%
%MOMM*%

%ADD15C,1.8796*%
%ADD16R,1.8796X1.8796*%
%ADD17C,1.0000*%
%ADD18R,1.5748X1.5748*%
%ADD19C,1.5748*%
%ADD21C,1.7000*%
%ADD22C,1.4600*%

%LPD*%
D15*
G01*
X6464300Y7531100D03*
G01*
X6210300Y7531100D03*
G01*
X5956300Y7531100D03*
G01*
X5702300Y7531100D03*
G01*
X5448300Y7531100D03*
G01*
X5194300Y7531100D03*
G01*
X4940300Y7531100D03*
G01*
X6718300Y7531100D03*
G01*
X6972300Y2705100D03*
G01*
X6718300Y2705100D03*
G01*
X6464300Y2705100D03*
G01*
X6210300Y2705100D03*
G01*
X5956300Y2705100D03*
G01*
X5702300Y2705100D03*
G01*
X5448300Y2705100D03*
G01*
X7226300Y2705100D03*
G01*
X8750300Y7531100D03*
G01*
X8496300Y7531100D03*
G01*
X8242300Y7531100D03*
G01*
X7988300Y7531100D03*
G01*
X7734300Y7531100D03*
G01*
X7480300Y7531100D03*
G01*
X7226300Y7531100D03*
G01*
X9004300Y7531100D03*
G01*
X9258300Y2705100D03*
G01*
X9004300Y2705100D03*
G01*
X8750300Y2705100D03*
G01*
X8496300Y2705100D03*
G01*
X8242300Y2705100D03*
G01*
X7988300Y2705100D03*
G01*
X7734300Y2705100D03*
G01*
X9512300Y2705100D03*
G01*
X11442700Y2705100D03*
G01*
X11188700Y2705100D03*
G01*
X10934700Y2705100D03*
G01*
X10680700Y2705100D03*
G01*
X10426700Y2705100D03*
G01*
X10172700Y2705100D03*
G01*
X9918700Y2705100D03*
G01*
X11696700Y2705100D03*
D16*
G01*
X4432300Y4737100D03*
G01*
X4686300Y4737100D03*
G01*
X4432300Y4483100D03*
G01*
X4686300Y4483100D03*
G01*
X4432300Y4229100D03*
G01*
X4686300Y4229100D03*
G01*
X4432300Y3975100D03*
G01*
X4686300Y3975100D03*
G01*
X4432300Y3721100D03*
G01*
X4686300Y3721100D03*
G01*
X4432300Y3467100D03*
G01*
X4686300Y3467100D03*
G01*
X4432300Y3213100D03*
G01*
X4686300Y3213100D03*
G01*
X4432300Y2959100D03*
G01*
X4686300Y2959100D03*
G01*
X4432300Y6769100D03*
G01*
X4686300Y6769100D03*
G01*
X4432300Y6515100D03*
G01*
X4686300Y6515100D03*
G01*
X4432300Y6261100D03*
G01*
X4686300Y6261100D03*
G01*
X4432300Y6007100D03*
G01*
X4686300Y6007100D03*
G01*
X4432300Y5753100D03*
G01*
X4686300Y5753100D03*
G01*
X4432300Y5499100D03*
G01*
X4686300Y5499100D03*
G01*
X4432300Y5245100D03*
G01*
X4686300Y5245100D03*
G01*
X4432300Y4991100D03*
G01*
X4686300Y4991100D03*
D15*
G01*
X4686300Y7023100D03*
G01*
X4432300Y7023100D03*
G01*
X4686300Y2705100D03*
G01*
X4432300Y2705100D03*
G01*
X10782300Y7531100D03*
G01*
X10528300Y7531100D03*
G01*
X10274300Y7531100D03*
G01*
X10020300Y7531100D03*
G01*
X9766300Y7531100D03*
G01*
X9512300Y7531100D03*
G01*
X11950700Y2705100D03*
G01*
X12204700Y2705100D03*
G01*
X11290300Y7531100D03*
G01*
X11036300Y7531100D03*
G01*
X7721600Y4737100D03*
G01*
X7467600Y4737100D03*
G01*
X7721600Y4991100D03*
G01*
X7467600Y4991100D03*
G01*
X7721600Y5245100D03*
G01*
X7467600Y5245100D03*
D17*
G01*
X9982200Y671956D03*
G01*
X9982200Y521843D03*
G01*
X7188200Y659256D03*
G01*
X7188200Y509143D03*
G01*
X4660900Y697356D03*
G01*
X4660900Y547243D03*
G01*
X12776200Y456056D03*
G01*
X12776200Y305943D03*
D18*
G01*
X2159000Y3962400D03*
D19*
G01*
X2159000Y4216400D03*
G01*
X2159000Y4470400D03*
G01*
X2159000Y4724400D03*
G36*
X13364301Y-1750060D02*
G01*
X13534301Y-1750060D01*
X13534301Y-1907539D01*
X13364301Y-1907539D01*
G37*
D21*
G01*
X13703300Y-1828800D03*
G36*
X10557601Y-1775460D02*
G01*
X10727601Y-1775460D01*
X10727601Y-1932939D01*
X10557601Y-1932939D01*
G37*
G01*
X10896600Y-1854200D03*
G36*
X4982301Y-1724660D02*
G01*
X5152301Y-1724660D01*
X5152301Y-1882139D01*
X4982301Y-1882139D01*
G37*
G01*
X5321300Y-1803400D03*
G36*
X7763601Y-1750060D02*
G01*
X7933601Y-1750060D01*
X7933601Y-1907539D01*
X7763601Y-1907539D01*
G37*
G01*
X8102600Y-1828800D03*
D18*
G01*
X2171700Y1892300D03*
G01*
X2159000Y2400300D03*
G01*
X2159000Y2921000D03*
G01*
X2171700Y3416300D03*
G36*
X14932659Y7774939D02*
G01*
X15090140Y7774939D01*
X15090140Y7617460D01*
X14932659Y7617460D01*
G37*
D19*
G01*
X15011400Y7950200D03*
G01*
X15265400Y7696200D03*
G01*
X15265400Y7950200D03*
G01*
X15519400Y7696200D03*
G01*
X15519400Y7950200D03*
G01*
X15773400Y7696200D03*
G01*
X15773400Y7950200D03*
G01*
X2184400Y-1765300D03*
G01*
X2438400Y-1765300D03*
D18*
G01*
X2692400Y-1765300D03*
D15*
G01*
X9982200Y6718300D03*
G01*
X10998200Y6718300D03*
G01*
X8445500Y6718300D03*
G01*
X9461500Y6718300D03*
G01*
X6934200Y6718300D03*
G01*
X7950200Y6718300D03*
G01*
X5410200Y6743700D03*
G01*
X6426200Y6743700D03*
G01*
X16002000Y6261100D03*
G01*
X16002000Y7277100D03*
G01*
X15582900Y6248400D03*
G01*
X15582900Y7264400D03*
G01*
X15087600Y6248400D03*
G01*
X15087600Y7264400D03*
G01*
X14566900Y6273800D03*
G01*
X14566900Y7289800D03*
D22*
X14592300Y-18249D02*
G01*
X14592300Y18249D01*
X14338300Y-18249D02*
G01*
X14338300Y18249D01*
X14084300Y-18249D02*
G01*
X14084300Y18249D01*
X13830300Y-18249D02*
G01*
X13830300Y18249D01*
X13576300Y-18249D02*
G01*
X13576300Y18249D01*
X13322300Y-18249D02*
G01*
X13322300Y18249D01*
X13068300Y-18249D02*
G01*
X13068300Y18249D01*
X12814300Y-18249D02*
G01*
X12814300Y18249D01*
X14592300Y-780249D02*
G01*
X14592300Y-743750D01*
X14338300Y-780249D02*
G01*
X14338300Y-743750D01*
X14084300Y-780249D02*
G01*
X14084300Y-743750D01*
X13830300Y-780249D02*
G01*
X13830300Y-743750D01*
X13576300Y-780249D02*
G01*
X13576300Y-743750D01*
X13322300Y-780249D02*
G01*
X13322300Y-743750D01*
X13068300Y-780249D02*
G01*
X13068300Y-743750D01*
X12814300Y-780249D02*
G01*
X12814300Y-743750D01*
X11912600Y-18249D02*
G01*
X11912600Y18249D01*
X11658600Y-18249D02*
G01*
X11658600Y18249D01*
X11404600Y-18249D02*
G01*
X11404600Y18249D01*
X11150600Y-18249D02*
G01*
X11150600Y18249D01*
X10896600Y-18249D02*
G01*
X10896600Y18249D01*
X10642600Y-18249D02*
G01*
X10642600Y18249D01*
X10388600Y-18249D02*
G01*
X10388600Y18249D01*
X10134600Y-18249D02*
G01*
X10134600Y18249D01*
X11912600Y-780249D02*
G01*
X11912600Y-743750D01*
X11658600Y-780249D02*
G01*
X11658600Y-743750D01*
X11404600Y-780249D02*
G01*
X11404600Y-743750D01*
X11150600Y-780249D02*
G01*
X11150600Y-743750D01*
X10896600Y-780249D02*
G01*
X10896600Y-743750D01*
X10642600Y-780249D02*
G01*
X10642600Y-743750D01*
X10388600Y-780249D02*
G01*
X10388600Y-743750D01*
X10134600Y-780249D02*
G01*
X10134600Y-743750D01*
X6464300Y-132549D02*
G01*
X6464300Y-96050D01*
X6210300Y-132549D02*
G01*
X6210300Y-96050D01*
X5956300Y-132549D02*
G01*
X5956300Y-96050D01*
X5702300Y-132549D02*
G01*
X5702300Y-96050D01*
X5448300Y-132549D02*
G01*
X5448300Y-96050D01*
X5194300Y-132549D02*
G01*
X5194300Y-96050D01*
X4940300Y-132549D02*
G01*
X4940300Y-96050D01*
X4686300Y-132549D02*
G01*
X4686300Y-96050D01*
X6464300Y-894549D02*
G01*
X6464300Y-858050D01*
X6210300Y-894549D02*
G01*
X6210300Y-858050D01*
X5956300Y-894549D02*
G01*
X5956300Y-858050D01*
X5702300Y-894549D02*
G01*
X5702300Y-858050D01*
X5448300Y-894549D02*
G01*
X5448300Y-858050D01*
X5194300Y-894549D02*
G01*
X5194300Y-858050D01*
X4940300Y-894549D02*
G01*
X4940300Y-858050D01*
X4686300Y-894549D02*
G01*
X4686300Y-858050D01*
X9105900Y7150D02*
G01*
X9105900Y43649D01*
X8851900Y7150D02*
G01*
X8851900Y43649D01*
X8597900Y7150D02*
G01*
X8597900Y43649D01*
X8343900Y7150D02*
G01*
X8343900Y43649D01*
X8089900Y7150D02*
G01*
X8089900Y43649D01*
X7835900Y7150D02*
G01*
X7835900Y43649D01*
X7581900Y7150D02*
G01*
X7581900Y43649D01*
X7327900Y7150D02*
G01*
X7327900Y43649D01*
X9105900Y-754849D02*
G01*
X9105900Y-718350D01*
X8851900Y-754849D02*
G01*
X8851900Y-718350D01*
X8597900Y-754849D02*
G01*
X8597900Y-718350D01*
X8343900Y-754849D02*
G01*
X8343900Y-718350D01*
X8089900Y-754849D02*
G01*
X8089900Y-718350D01*
X7835900Y-754849D02*
G01*
X7835900Y-718350D01*
X7581900Y-754849D02*
G01*
X7581900Y-718350D01*
X7327900Y-754849D02*
G01*
X7327900Y-718350D01*
M02*
