G04 Layer: TopSilkscreenLayer*
G04 EasyEDA v6.5.1, 2022-05-03 13:15:28*
G04 Gerber Generator version 0.2*
G04 Scale: 100 percent, Rotated: No, Reflected: No *
G04 Dimensions in millimeters *
G04 leading zeros omitted , absolute positions ,4 integer and 5 decimal *
%FSLAX45Y45*%
%MOMM*%

%ADD10C,0.2540*%
%ADD11C,0.3000*%
%ADD23C,0.3048*%
%ADD24C,0.0800*%
%ADD25C,0.2032*%
%ADD26C,0.2030*%
%ADD27C,0.1524*%

%LPD*%
D27*
X3160522Y-356107D02*
G01*
X3165856Y-366521D01*
X3176270Y-376936D01*
X3186429Y-382015D01*
X3207258Y-382015D01*
X3217672Y-376936D01*
X3228086Y-366521D01*
X3233420Y-356107D01*
X3238500Y-340360D01*
X3238500Y-314452D01*
X3233420Y-298957D01*
X3228086Y-288544D01*
X3217672Y-278129D01*
X3207258Y-273050D01*
X3186429Y-273050D01*
X3176270Y-278129D01*
X3165856Y-288544D01*
X3160522Y-298957D01*
X3160522Y-314452D01*
X3186429Y-314452D02*
G01*
X3160522Y-314452D01*
X3121152Y-356107D02*
G01*
X3121152Y-361187D01*
X3115818Y-371602D01*
X3110738Y-376936D01*
X3100324Y-382015D01*
X3079495Y-382015D01*
X3069081Y-376936D01*
X3064002Y-371602D01*
X3058668Y-361187D01*
X3058668Y-350773D01*
X3064002Y-340360D01*
X3074415Y-324865D01*
X3126231Y-273050D01*
X3053588Y-273050D01*
X8282177Y2974847D02*
G01*
X8286750Y2974847D01*
X8296147Y2970276D01*
X8300720Y2965450D01*
X8305291Y2956305D01*
X8305291Y2937763D01*
X8300720Y2928620D01*
X8296147Y2924047D01*
X8286750Y2919476D01*
X8277606Y2919476D01*
X8268461Y2924047D01*
X8254491Y2933192D01*
X8208263Y2979420D01*
X8208263Y2914650D01*
X8559291Y2970276D02*
G01*
X8559291Y2919476D01*
X8522461Y2947162D01*
X8522461Y2933192D01*
X8517890Y2924047D01*
X8513063Y2919476D01*
X8499347Y2914650D01*
X8489950Y2914650D01*
X8476234Y2919476D01*
X8467090Y2928620D01*
X8462263Y2942589D01*
X8462263Y2956305D01*
X8467090Y2970276D01*
X8471661Y2974847D01*
X8480806Y2979420D01*
X8813291Y2933192D02*
G01*
X8748775Y2979420D01*
X8748775Y2910078D01*
X8813291Y2933192D02*
G01*
X8716263Y2933192D01*
X9067291Y2924047D02*
G01*
X9067291Y2970276D01*
X9025890Y2974847D01*
X9030461Y2970276D01*
X9035034Y2956305D01*
X9035034Y2942589D01*
X9030461Y2928620D01*
X9021063Y2919476D01*
X9007347Y2914650D01*
X8997950Y2914650D01*
X8984234Y2919476D01*
X8975090Y2928620D01*
X8970263Y2942589D01*
X8970263Y2956305D01*
X8975090Y2970276D01*
X8979661Y2974847D01*
X8988806Y2979420D01*
X9307575Y2924047D02*
G01*
X9316720Y2928620D01*
X9321291Y2942589D01*
X9321291Y2951734D01*
X9316720Y2965450D01*
X9302750Y2974847D01*
X9279890Y2979420D01*
X9256775Y2979420D01*
X9238234Y2974847D01*
X9229090Y2965450D01*
X9224263Y2951734D01*
X9224263Y2947162D01*
X9229090Y2933192D01*
X9238234Y2924047D01*
X9251950Y2919476D01*
X9256775Y2919476D01*
X9270491Y2924047D01*
X9279890Y2933192D01*
X9284461Y2947162D01*
X9284461Y2951734D01*
X9279890Y2965450D01*
X9270491Y2974847D01*
X9256775Y2979420D01*
X9575291Y2914650D02*
G01*
X9478263Y2960878D01*
X9575291Y2979420D02*
G01*
X9575291Y2914650D01*
X9956291Y2956305D02*
G01*
X9951720Y2970276D01*
X9942575Y2974847D01*
X9933177Y2974847D01*
X9924034Y2970276D01*
X9919461Y2960878D01*
X9914890Y2942589D01*
X9910063Y2928620D01*
X9900920Y2919476D01*
X9891775Y2914650D01*
X9877806Y2914650D01*
X9868661Y2919476D01*
X9864090Y2924047D01*
X9859263Y2937763D01*
X9859263Y2956305D01*
X9864090Y2970276D01*
X9868661Y2974847D01*
X9877806Y2979420D01*
X9891775Y2979420D01*
X9900920Y2974847D01*
X9910063Y2965450D01*
X9914890Y2951734D01*
X9919461Y2933192D01*
X9924034Y2924047D01*
X9933177Y2919476D01*
X9942575Y2919476D01*
X9951720Y2924047D01*
X9956291Y2937763D01*
X9956291Y2956305D01*
X10178034Y2919476D02*
G01*
X10164063Y2924047D01*
X10154920Y2933192D01*
X10150347Y2947162D01*
X10150347Y2951734D01*
X10154920Y2965450D01*
X10164063Y2974847D01*
X10178034Y2979420D01*
X10182606Y2979420D01*
X10196575Y2974847D01*
X10205720Y2965450D01*
X10210291Y2951734D01*
X10210291Y2947162D01*
X10205720Y2933192D01*
X10196575Y2924047D01*
X10178034Y2919476D01*
X10154920Y2919476D01*
X10131806Y2924047D01*
X10118090Y2933192D01*
X10113263Y2947162D01*
X10113263Y2956305D01*
X10118090Y2970276D01*
X10127234Y2974847D01*
X10460990Y3012439D02*
G01*
X10465815Y3003295D01*
X10479531Y2989326D01*
X10382504Y2989326D01*
X10479531Y2931160D02*
G01*
X10474959Y2945129D01*
X10460990Y2954273D01*
X10438129Y2958845D01*
X10424159Y2958845D01*
X10401045Y2954273D01*
X10387329Y2945129D01*
X10382504Y2931160D01*
X10382504Y2922015D01*
X10387329Y2908045D01*
X10401045Y2898902D01*
X10424159Y2894329D01*
X10438129Y2894329D01*
X10460990Y2898902D01*
X10474959Y2908045D01*
X10479531Y2922015D01*
X10479531Y2931160D01*
X10714990Y2987039D02*
G01*
X10719815Y2977895D01*
X10733531Y2963926D01*
X10636504Y2963926D01*
X10714990Y2933445D02*
G01*
X10719815Y2924302D01*
X10733531Y2910331D01*
X10636504Y2910331D01*
X10967974Y3021837D02*
G01*
X10972800Y3012694D01*
X10986515Y2998723D01*
X10889488Y2998723D01*
X10963402Y2963671D02*
G01*
X10967974Y2963671D01*
X10977372Y2959100D01*
X10981943Y2954528D01*
X10986515Y2945129D01*
X10986515Y2926587D01*
X10981943Y2917444D01*
X10977372Y2912871D01*
X10967974Y2908300D01*
X10958829Y2908300D01*
X10949686Y2912871D01*
X10935715Y2922015D01*
X10889488Y2968244D01*
X10889488Y2903728D01*
X11221974Y3022092D02*
G01*
X11226800Y3012947D01*
X11240515Y2998978D01*
X11143488Y2998978D01*
X11240515Y2959354D02*
G01*
X11240515Y2908554D01*
X11203686Y2936239D01*
X11203686Y2922270D01*
X11199113Y2913126D01*
X11194288Y2908554D01*
X11180572Y2903981D01*
X11171174Y2903981D01*
X11157458Y2908554D01*
X11148313Y2917697D01*
X11143488Y2931668D01*
X11143488Y2945384D01*
X11148313Y2959354D01*
X11152886Y2963926D01*
X11162029Y2968497D01*
X7263129Y3022600D02*
G01*
X7267956Y3013455D01*
X7281672Y2999486D01*
X7184643Y2999486D01*
X7281672Y2922778D02*
G01*
X7217156Y2969005D01*
X7217156Y2899663D01*
X7281672Y2922778D02*
G01*
X7184643Y2922778D01*
X7009129Y3022600D02*
G01*
X7013956Y3013455D01*
X7027672Y2999486D01*
X6930643Y2999486D01*
X7027672Y2913634D02*
G01*
X7027672Y2959862D01*
X6986270Y2964434D01*
X6990841Y2959862D01*
X6995413Y2945892D01*
X6995413Y2932176D01*
X6990841Y2918205D01*
X6981443Y2909062D01*
X6967727Y2904489D01*
X6958329Y2904489D01*
X6944613Y2909062D01*
X6935470Y2918205D01*
X6930643Y2932176D01*
X6930643Y2945892D01*
X6935470Y2959862D01*
X6940041Y2964434D01*
X6949186Y2969005D01*
X6755129Y3022600D02*
G01*
X6759956Y3013455D01*
X6773672Y2999486D01*
X6676643Y2999486D01*
X6759956Y2913634D02*
G01*
X6769100Y2918205D01*
X6773672Y2932176D01*
X6773672Y2941320D01*
X6769100Y2955289D01*
X6755129Y2964434D01*
X6732270Y2969005D01*
X6709156Y2969005D01*
X6690613Y2964434D01*
X6681470Y2955289D01*
X6676643Y2941320D01*
X6676643Y2936747D01*
X6681470Y2922778D01*
X6690613Y2913634D01*
X6704329Y2909062D01*
X6709156Y2909062D01*
X6722872Y2913634D01*
X6732270Y2922778D01*
X6736841Y2936747D01*
X6736841Y2941320D01*
X6732270Y2955289D01*
X6722872Y2964434D01*
X6709156Y2969005D01*
X6501129Y3022600D02*
G01*
X6505956Y3013455D01*
X6519672Y2999486D01*
X6422643Y2999486D01*
X6519672Y2904489D02*
G01*
X6422643Y2950463D01*
X6519672Y2969005D02*
G01*
X6519672Y2904489D01*
X6247129Y3022600D02*
G01*
X6251956Y3013455D01*
X6265672Y2999486D01*
X6168643Y2999486D01*
X6265672Y2945892D02*
G01*
X6261100Y2959862D01*
X6251956Y2964434D01*
X6242558Y2964434D01*
X6233413Y2959862D01*
X6228841Y2950463D01*
X6224270Y2932176D01*
X6219443Y2918205D01*
X6210300Y2909062D01*
X6201156Y2904489D01*
X6187186Y2904489D01*
X6178041Y2909062D01*
X6173470Y2913634D01*
X6168643Y2927350D01*
X6168643Y2945892D01*
X6173470Y2959862D01*
X6178041Y2964434D01*
X6187186Y2969005D01*
X6201156Y2969005D01*
X6210300Y2964434D01*
X6219443Y2955289D01*
X6224270Y2941320D01*
X6228841Y2922778D01*
X6233413Y2913634D01*
X6242558Y2909062D01*
X6251956Y2909062D01*
X6261100Y2913634D01*
X6265672Y2927350D01*
X6265672Y2945892D01*
X5993129Y3022600D02*
G01*
X5997956Y3013455D01*
X6011672Y2999486D01*
X5914643Y2999486D01*
X5979413Y2909062D02*
G01*
X5965443Y2913634D01*
X5956300Y2922778D01*
X5951727Y2936747D01*
X5951727Y2941320D01*
X5956300Y2955289D01*
X5965443Y2964434D01*
X5979413Y2969005D01*
X5983986Y2969005D01*
X5997956Y2964434D01*
X6007100Y2955289D01*
X6011672Y2941320D01*
X6011672Y2936747D01*
X6007100Y2922778D01*
X5997956Y2913634D01*
X5979413Y2909062D01*
X5956300Y2909062D01*
X5933186Y2913634D01*
X5919470Y2922778D01*
X5914643Y2936747D01*
X5914643Y2945892D01*
X5919470Y2959862D01*
X5928613Y2964434D01*
X5734558Y3048507D02*
G01*
X5739129Y3048507D01*
X5748527Y3043936D01*
X5753100Y3039110D01*
X5757672Y3029965D01*
X5757672Y3011423D01*
X5753100Y3002279D01*
X5748527Y2997707D01*
X5739129Y2993136D01*
X5729986Y2993136D01*
X5720841Y2997707D01*
X5706872Y3006852D01*
X5660643Y3053079D01*
X5660643Y2988310D01*
X5757672Y2930144D02*
G01*
X5753100Y2944113D01*
X5739129Y2953257D01*
X5716270Y2957829D01*
X5702300Y2957829D01*
X5679186Y2953257D01*
X5665470Y2944113D01*
X5660643Y2930144D01*
X5660643Y2921000D01*
X5665470Y2907029D01*
X5679186Y2897886D01*
X5702300Y2893313D01*
X5716270Y2893313D01*
X5739129Y2897886D01*
X5753100Y2907029D01*
X5757672Y2921000D01*
X5757672Y2930144D01*
X5480558Y3018028D02*
G01*
X5485129Y3018028D01*
X5494527Y3013455D01*
X5499100Y3008629D01*
X5503672Y2999486D01*
X5503672Y2980944D01*
X5499100Y2971800D01*
X5494527Y2967228D01*
X5485129Y2962655D01*
X5475986Y2962655D01*
X5466841Y2967228D01*
X5452872Y2976371D01*
X5406643Y3022600D01*
X5406643Y2957829D01*
X5485129Y2927350D02*
G01*
X5489956Y2918205D01*
X5503672Y2904489D01*
X5406643Y2904489D01*
X5028184Y2940050D02*
G01*
X5028184Y2935478D01*
X5023611Y2926079D01*
X5018786Y2921507D01*
X5009641Y2916936D01*
X4991100Y2916936D01*
X4981956Y2921507D01*
X4977384Y2926079D01*
X4972811Y2935478D01*
X4972811Y2944621D01*
X4977384Y2953765D01*
X4986527Y2967736D01*
X5032756Y3013963D01*
X4967986Y3013963D01*
X4932934Y2940050D02*
G01*
X4932934Y2935478D01*
X4928361Y2926079D01*
X4923790Y2921507D01*
X4914645Y2916936D01*
X4896104Y2916936D01*
X4886706Y2921507D01*
X4882134Y2926079D01*
X4877561Y2935478D01*
X4877561Y2944621D01*
X4882134Y2953765D01*
X4891531Y2967736D01*
X4937506Y3013963D01*
X4872990Y3013963D01*
X5028184Y3194050D02*
G01*
X5028184Y3189478D01*
X5023611Y3180079D01*
X5018786Y3175507D01*
X5009641Y3170936D01*
X4991100Y3170936D01*
X4981956Y3175507D01*
X4977384Y3180079D01*
X4972811Y3189478D01*
X4972811Y3198621D01*
X4977384Y3207765D01*
X4986527Y3221736D01*
X5032756Y3267963D01*
X4967986Y3267963D01*
X4891531Y3170936D02*
G01*
X4937506Y3235452D01*
X4868418Y3235452D01*
X4891531Y3170936D02*
G01*
X4891531Y3267963D01*
X5028184Y3448050D02*
G01*
X5028184Y3443478D01*
X5023611Y3434079D01*
X5018786Y3429507D01*
X5009641Y3424936D01*
X4991100Y3424936D01*
X4981956Y3429507D01*
X4977384Y3434079D01*
X4972811Y3443478D01*
X4972811Y3452621D01*
X4977384Y3461765D01*
X4986527Y3475736D01*
X5032756Y3521963D01*
X4967986Y3521963D01*
X4882134Y3438652D02*
G01*
X4886706Y3429507D01*
X4900675Y3424936D01*
X4909820Y3424936D01*
X4923790Y3429507D01*
X4932934Y3443478D01*
X4937506Y3466337D01*
X4937506Y3489452D01*
X4932934Y3507994D01*
X4923790Y3517137D01*
X4909820Y3521963D01*
X4905247Y3521963D01*
X4891531Y3517137D01*
X4882134Y3507994D01*
X4877561Y3494278D01*
X4877561Y3489452D01*
X4882134Y3475736D01*
X4891531Y3466337D01*
X4905247Y3461765D01*
X4909820Y3461765D01*
X4923790Y3466337D01*
X4932934Y3475736D01*
X4937506Y3489452D01*
X5028184Y3702050D02*
G01*
X5028184Y3697478D01*
X5023611Y3688079D01*
X5018786Y3683507D01*
X5009641Y3678936D01*
X4991100Y3678936D01*
X4981956Y3683507D01*
X4977384Y3688079D01*
X4972811Y3697478D01*
X4972811Y3706621D01*
X4977384Y3715765D01*
X4986527Y3729736D01*
X5032756Y3775963D01*
X4967986Y3775963D01*
X4914645Y3678936D02*
G01*
X4928361Y3683507D01*
X4932934Y3692652D01*
X4932934Y3702050D01*
X4928361Y3711194D01*
X4919218Y3715765D01*
X4900675Y3720337D01*
X4886706Y3725163D01*
X4877561Y3734307D01*
X4872990Y3743452D01*
X4872990Y3757421D01*
X4877561Y3766565D01*
X4882134Y3771137D01*
X4896104Y3775963D01*
X4914645Y3775963D01*
X4928361Y3771137D01*
X4932934Y3766565D01*
X4937506Y3757421D01*
X4937506Y3743452D01*
X4932934Y3734307D01*
X4923790Y3725163D01*
X4909820Y3720337D01*
X4891531Y3715765D01*
X4882134Y3711194D01*
X4877561Y3702050D01*
X4877561Y3692652D01*
X4882134Y3683507D01*
X4896104Y3678936D01*
X4914645Y3678936D01*
X5023611Y3932936D02*
G01*
X4972811Y3932936D01*
X5000497Y3969765D01*
X4986527Y3969765D01*
X4977384Y3974337D01*
X4972811Y3979163D01*
X4967986Y3992879D01*
X4967986Y4002278D01*
X4972811Y4015994D01*
X4981956Y4025137D01*
X4995925Y4029963D01*
X5009641Y4029963D01*
X5023611Y4025137D01*
X5028184Y4020565D01*
X5032756Y4011421D01*
X4909820Y3932936D02*
G01*
X4923790Y3937507D01*
X4932934Y3951478D01*
X4937506Y3974337D01*
X4937506Y3988307D01*
X4932934Y4011421D01*
X4923790Y4025137D01*
X4909820Y4029963D01*
X4900675Y4029963D01*
X4886706Y4025137D01*
X4877561Y4011421D01*
X4872990Y3988307D01*
X4872990Y3974337D01*
X4877561Y3951478D01*
X4886706Y3937507D01*
X4900675Y3932936D01*
X4909820Y3932936D01*
X5023611Y4186936D02*
G01*
X4972811Y4186936D01*
X5000497Y4223765D01*
X4986527Y4223765D01*
X4977384Y4228337D01*
X4972811Y4233163D01*
X4967986Y4246879D01*
X4967986Y4256278D01*
X4972811Y4269994D01*
X4981956Y4279137D01*
X4995925Y4283963D01*
X5009641Y4283963D01*
X5023611Y4279137D01*
X5028184Y4274565D01*
X5032756Y4265421D01*
X4932934Y4210050D02*
G01*
X4932934Y4205478D01*
X4928361Y4196079D01*
X4923790Y4191507D01*
X4914645Y4186936D01*
X4896104Y4186936D01*
X4886706Y4191507D01*
X4882134Y4196079D01*
X4877561Y4205478D01*
X4877561Y4214621D01*
X4882134Y4223765D01*
X4891531Y4237736D01*
X4937506Y4283963D01*
X4872990Y4283963D01*
X5023611Y4440936D02*
G01*
X4972811Y4440936D01*
X5000497Y4477765D01*
X4986527Y4477765D01*
X4977384Y4482337D01*
X4972811Y4487163D01*
X4967986Y4500879D01*
X4967986Y4510278D01*
X4972811Y4523994D01*
X4981956Y4533137D01*
X4995925Y4537963D01*
X5009641Y4537963D01*
X5023611Y4533137D01*
X5028184Y4528565D01*
X5032756Y4519421D01*
X4891531Y4440936D02*
G01*
X4937506Y4505452D01*
X4868418Y4505452D01*
X4891531Y4440936D02*
G01*
X4891531Y4537963D01*
X5023611Y4694936D02*
G01*
X4972811Y4694936D01*
X5000497Y4731765D01*
X4986527Y4731765D01*
X4977384Y4736337D01*
X4972811Y4741163D01*
X4967986Y4754879D01*
X4967986Y4764278D01*
X4972811Y4777994D01*
X4981956Y4787137D01*
X4995925Y4791963D01*
X5009641Y4791963D01*
X5023611Y4787137D01*
X5028184Y4782565D01*
X5032756Y4773421D01*
X4882134Y4708652D02*
G01*
X4886706Y4699507D01*
X4900675Y4694936D01*
X4909820Y4694936D01*
X4923790Y4699507D01*
X4932934Y4713478D01*
X4937506Y4736337D01*
X4937506Y4759452D01*
X4932934Y4777994D01*
X4923790Y4787137D01*
X4909820Y4791963D01*
X4905247Y4791963D01*
X4891531Y4787137D01*
X4882134Y4777994D01*
X4877561Y4764278D01*
X4877561Y4759452D01*
X4882134Y4745736D01*
X4891531Y4736337D01*
X4905247Y4731765D01*
X4909820Y4731765D01*
X4923790Y4736337D01*
X4932934Y4745736D01*
X4937506Y4759452D01*
X5023611Y4948936D02*
G01*
X4972811Y4948936D01*
X5000497Y4985765D01*
X4986527Y4985765D01*
X4977384Y4990337D01*
X4972811Y4995163D01*
X4967986Y5008879D01*
X4967986Y5018278D01*
X4972811Y5031994D01*
X4981956Y5041137D01*
X4995925Y5045963D01*
X5009641Y5045963D01*
X5023611Y5041137D01*
X5028184Y5036565D01*
X5032756Y5027421D01*
X4914645Y4948936D02*
G01*
X4928361Y4953507D01*
X4932934Y4962652D01*
X4932934Y4972050D01*
X4928361Y4981194D01*
X4919218Y4985765D01*
X4900675Y4990337D01*
X4886706Y4995163D01*
X4877561Y5004307D01*
X4872990Y5013452D01*
X4872990Y5027421D01*
X4877561Y5036565D01*
X4882134Y5041137D01*
X4896104Y5045963D01*
X4914645Y5045963D01*
X4928361Y5041137D01*
X4932934Y5036565D01*
X4937506Y5027421D01*
X4937506Y5013452D01*
X4932934Y5004307D01*
X4923790Y4995163D01*
X4909820Y4990337D01*
X4891531Y4985765D01*
X4882134Y4981194D01*
X4877561Y4972050D01*
X4877561Y4962652D01*
X4882134Y4953507D01*
X4896104Y4948936D01*
X4914645Y4948936D01*
X4986527Y5202936D02*
G01*
X5032756Y5267452D01*
X4963413Y5267452D01*
X4986527Y5202936D02*
G01*
X4986527Y5299963D01*
X4905247Y5202936D02*
G01*
X4919218Y5207507D01*
X4928361Y5221478D01*
X4932934Y5244337D01*
X4932934Y5258307D01*
X4928361Y5281421D01*
X4919218Y5295137D01*
X4905247Y5299963D01*
X4896104Y5299963D01*
X4882134Y5295137D01*
X4872990Y5281421D01*
X4868418Y5258307D01*
X4868418Y5244337D01*
X4872990Y5221478D01*
X4882134Y5207507D01*
X4896104Y5202936D01*
X4905247Y5202936D01*
X4986527Y5456936D02*
G01*
X5032756Y5521452D01*
X4963413Y5521452D01*
X4986527Y5456936D02*
G01*
X4986527Y5553963D01*
X4928361Y5480050D02*
G01*
X4928361Y5475478D01*
X4923790Y5466079D01*
X4919218Y5461507D01*
X4909820Y5456936D01*
X4891531Y5456936D01*
X4882134Y5461507D01*
X4877561Y5466079D01*
X4872990Y5475478D01*
X4872990Y5484621D01*
X4877561Y5493765D01*
X4886706Y5507736D01*
X4932934Y5553963D01*
X4868418Y5553963D01*
X4986527Y5710936D02*
G01*
X5032756Y5775452D01*
X4963413Y5775452D01*
X4986527Y5710936D02*
G01*
X4986527Y5807963D01*
X4886706Y5710936D02*
G01*
X4932934Y5775452D01*
X4863845Y5775452D01*
X4886706Y5710936D02*
G01*
X4886706Y5807963D01*
X4986527Y5964936D02*
G01*
X5032756Y6029452D01*
X4963413Y6029452D01*
X4986527Y5964936D02*
G01*
X4986527Y6061963D01*
X4877561Y5978652D02*
G01*
X4882134Y5969507D01*
X4896104Y5964936D01*
X4905247Y5964936D01*
X4919218Y5969507D01*
X4928361Y5983478D01*
X4932934Y6006337D01*
X4932934Y6029452D01*
X4928361Y6047994D01*
X4919218Y6057137D01*
X4905247Y6061963D01*
X4900675Y6061963D01*
X4886706Y6057137D01*
X4877561Y6047994D01*
X4872990Y6034278D01*
X4872990Y6029452D01*
X4877561Y6015736D01*
X4886706Y6006337D01*
X4900675Y6001765D01*
X4905247Y6001765D01*
X4919218Y6006337D01*
X4928361Y6015736D01*
X4932934Y6029452D01*
X4977384Y6472936D02*
G01*
X5023611Y6472936D01*
X5028184Y6514337D01*
X5023611Y6509765D01*
X5009641Y6505194D01*
X4995925Y6505194D01*
X4981956Y6509765D01*
X4972811Y6519163D01*
X4967986Y6532879D01*
X4967986Y6542278D01*
X4972811Y6555994D01*
X4981956Y6565137D01*
X4995925Y6569963D01*
X5009641Y6569963D01*
X5023611Y6565137D01*
X5028184Y6560565D01*
X5032756Y6551421D01*
X4909820Y6472936D02*
G01*
X4923790Y6477507D01*
X4932934Y6491478D01*
X4937506Y6514337D01*
X4937506Y6528307D01*
X4932934Y6551421D01*
X4923790Y6565137D01*
X4909820Y6569963D01*
X4900675Y6569963D01*
X4886706Y6565137D01*
X4877561Y6551421D01*
X4872990Y6528307D01*
X4872990Y6514337D01*
X4877561Y6491478D01*
X4886706Y6477507D01*
X4900675Y6472936D01*
X4909820Y6472936D01*
X4986527Y6218936D02*
G01*
X5032756Y6283452D01*
X4963413Y6283452D01*
X4986527Y6218936D02*
G01*
X4986527Y6315963D01*
X4909820Y6218936D02*
G01*
X4923790Y6223507D01*
X4928361Y6232652D01*
X4928361Y6242050D01*
X4923790Y6251194D01*
X4914645Y6255765D01*
X4896104Y6260337D01*
X4882134Y6265163D01*
X4872990Y6274307D01*
X4868418Y6283452D01*
X4868418Y6297421D01*
X4872990Y6306565D01*
X4877561Y6311137D01*
X4891531Y6315963D01*
X4909820Y6315963D01*
X4923790Y6311137D01*
X4928361Y6306565D01*
X4932934Y6297421D01*
X4932934Y6283452D01*
X4928361Y6274307D01*
X4919218Y6265163D01*
X4905247Y6260337D01*
X4886706Y6255765D01*
X4877561Y6251194D01*
X4872990Y6242050D01*
X4872990Y6232652D01*
X4877561Y6223507D01*
X4891531Y6218936D01*
X4909820Y6218936D01*
X4977384Y6726936D02*
G01*
X5023611Y6726936D01*
X5028184Y6768337D01*
X5023611Y6763765D01*
X5009641Y6759194D01*
X4995925Y6759194D01*
X4981956Y6763765D01*
X4972811Y6773163D01*
X4967986Y6786879D01*
X4967986Y6796278D01*
X4972811Y6809994D01*
X4981956Y6819137D01*
X4995925Y6823963D01*
X5009641Y6823963D01*
X5023611Y6819137D01*
X5028184Y6814565D01*
X5032756Y6805421D01*
X4932934Y6750050D02*
G01*
X4932934Y6745478D01*
X4928361Y6736079D01*
X4923790Y6731508D01*
X4914645Y6726936D01*
X4896104Y6726936D01*
X4886706Y6731508D01*
X4882134Y6736079D01*
X4877561Y6745478D01*
X4877561Y6754621D01*
X4882134Y6763765D01*
X4891531Y6777736D01*
X4937506Y6823963D01*
X4872990Y6823963D01*
X4258056Y3967987D02*
G01*
X4207256Y3967987D01*
X4234941Y4004818D01*
X4220972Y4004818D01*
X4211827Y4009389D01*
X4207256Y4014215D01*
X4202429Y4027931D01*
X4202429Y4037329D01*
X4207256Y4051045D01*
X4216400Y4060189D01*
X4230370Y4065015D01*
X4244086Y4065015D01*
X4258056Y4060189D01*
X4262627Y4055618D01*
X4267200Y4046473D01*
X4171950Y3986529D02*
G01*
X4162806Y3981704D01*
X4149090Y3967987D01*
X4149090Y4065015D01*
X4258056Y4221987D02*
G01*
X4207256Y4221987D01*
X4234941Y4258818D01*
X4220972Y4258818D01*
X4211827Y4263389D01*
X4207256Y4268215D01*
X4202429Y4281931D01*
X4202429Y4291329D01*
X4207256Y4305045D01*
X4216400Y4314189D01*
X4230370Y4319015D01*
X4244086Y4319015D01*
X4258056Y4314189D01*
X4262627Y4309618D01*
X4267200Y4300473D01*
X4162806Y4221987D02*
G01*
X4112006Y4221987D01*
X4139691Y4258818D01*
X4125975Y4258818D01*
X4116577Y4263389D01*
X4112006Y4268215D01*
X4107434Y4281931D01*
X4107434Y4291329D01*
X4112006Y4305045D01*
X4121150Y4314189D01*
X4135120Y4319015D01*
X4149090Y4319015D01*
X4162806Y4314189D01*
X4167377Y4309618D01*
X4171950Y4300473D01*
X4258056Y4475987D02*
G01*
X4207256Y4475987D01*
X4234941Y4512818D01*
X4220972Y4512818D01*
X4211827Y4517389D01*
X4207256Y4522215D01*
X4202429Y4535931D01*
X4202429Y4545329D01*
X4207256Y4559045D01*
X4216400Y4568189D01*
X4230370Y4573015D01*
X4244086Y4573015D01*
X4258056Y4568189D01*
X4262627Y4563618D01*
X4267200Y4554473D01*
X4116577Y4475987D02*
G01*
X4162806Y4475987D01*
X4167377Y4517389D01*
X4162806Y4512818D01*
X4149090Y4508245D01*
X4135120Y4508245D01*
X4121150Y4512818D01*
X4112006Y4522215D01*
X4107434Y4535931D01*
X4107434Y4545329D01*
X4112006Y4559045D01*
X4121150Y4568189D01*
X4135120Y4573015D01*
X4149090Y4573015D01*
X4162806Y4568189D01*
X4167377Y4563618D01*
X4171950Y4554473D01*
X4258056Y4729987D02*
G01*
X4207256Y4729987D01*
X4234941Y4766818D01*
X4220972Y4766818D01*
X4211827Y4771389D01*
X4207256Y4776215D01*
X4202429Y4789931D01*
X4202429Y4799329D01*
X4207256Y4813045D01*
X4216400Y4822189D01*
X4230370Y4827015D01*
X4244086Y4827015D01*
X4258056Y4822189D01*
X4262627Y4817618D01*
X4267200Y4808473D01*
X4107434Y4729987D02*
G01*
X4153661Y4827015D01*
X4171950Y4729987D02*
G01*
X4107434Y4729987D01*
X4258056Y4983987D02*
G01*
X4207256Y4983987D01*
X4234941Y5020818D01*
X4220972Y5020818D01*
X4211827Y5025389D01*
X4207256Y5030215D01*
X4202429Y5043931D01*
X4202429Y5053329D01*
X4207256Y5067045D01*
X4216400Y5076189D01*
X4230370Y5081015D01*
X4244086Y5081015D01*
X4258056Y5076189D01*
X4262627Y5071618D01*
X4267200Y5062473D01*
X4112006Y5016245D02*
G01*
X4116577Y5030215D01*
X4125975Y5039360D01*
X4139691Y5043931D01*
X4144263Y5043931D01*
X4158234Y5039360D01*
X4167377Y5030215D01*
X4171950Y5016245D01*
X4171950Y5011673D01*
X4167377Y4997704D01*
X4158234Y4988560D01*
X4144263Y4983987D01*
X4139691Y4983987D01*
X4125975Y4988560D01*
X4116577Y4997704D01*
X4112006Y5016245D01*
X4112006Y5039360D01*
X4116577Y5062473D01*
X4125975Y5076189D01*
X4139691Y5081015D01*
X4149090Y5081015D01*
X4162806Y5076189D01*
X4167377Y5067045D01*
X4220972Y5237987D02*
G01*
X4267200Y5302504D01*
X4197858Y5302504D01*
X4220972Y5237987D02*
G01*
X4220972Y5335015D01*
X4167377Y5256529D02*
G01*
X4158234Y5251704D01*
X4144263Y5237987D01*
X4144263Y5335015D01*
X4220972Y5491987D02*
G01*
X4267200Y5556504D01*
X4197858Y5556504D01*
X4220972Y5491987D02*
G01*
X4220972Y5589015D01*
X4158234Y5491987D02*
G01*
X4107434Y5491987D01*
X4135120Y5528818D01*
X4121150Y5528818D01*
X4112006Y5533389D01*
X4107434Y5538215D01*
X4102861Y5551931D01*
X4102861Y5561329D01*
X4107434Y5575045D01*
X4116577Y5584189D01*
X4130547Y5589015D01*
X4144263Y5589015D01*
X4158234Y5584189D01*
X4162806Y5579618D01*
X4167377Y5570473D01*
X4220972Y5745987D02*
G01*
X4267200Y5810504D01*
X4197858Y5810504D01*
X4220972Y5745987D02*
G01*
X4220972Y5843015D01*
X4112006Y5745987D02*
G01*
X4158234Y5745987D01*
X4162806Y5787389D01*
X4158234Y5782818D01*
X4144263Y5778245D01*
X4130547Y5778245D01*
X4116577Y5782818D01*
X4107434Y5792215D01*
X4102861Y5805931D01*
X4102861Y5815329D01*
X4107434Y5829045D01*
X4116577Y5838189D01*
X4130547Y5843015D01*
X4144263Y5843015D01*
X4158234Y5838189D01*
X4162806Y5833618D01*
X4167377Y5824473D01*
X4220972Y5999987D02*
G01*
X4267200Y6064504D01*
X4197858Y6064504D01*
X4220972Y5999987D02*
G01*
X4220972Y6097015D01*
X4102861Y5999987D02*
G01*
X4149090Y6097015D01*
X4167377Y5999987D02*
G01*
X4102861Y5999987D01*
X4220972Y6253987D02*
G01*
X4267200Y6318504D01*
X4197858Y6318504D01*
X4220972Y6253987D02*
G01*
X4220972Y6351015D01*
X4107434Y6286245D02*
G01*
X4112006Y6300215D01*
X4121150Y6309360D01*
X4135120Y6313931D01*
X4139691Y6313931D01*
X4153661Y6309360D01*
X4162806Y6300215D01*
X4167377Y6286245D01*
X4167377Y6281673D01*
X4162806Y6267704D01*
X4153661Y6258560D01*
X4139691Y6253987D01*
X4135120Y6253987D01*
X4121150Y6258560D01*
X4112006Y6267704D01*
X4107434Y6286245D01*
X4107434Y6309360D01*
X4112006Y6332473D01*
X4121150Y6346189D01*
X4135120Y6351015D01*
X4144263Y6351015D01*
X4158234Y6346189D01*
X4162806Y6337045D01*
X4211827Y6507987D02*
G01*
X4258056Y6507987D01*
X4262627Y6549389D01*
X4258056Y6544818D01*
X4244086Y6540245D01*
X4230370Y6540245D01*
X4216400Y6544818D01*
X4207256Y6554215D01*
X4202429Y6567931D01*
X4202429Y6577329D01*
X4207256Y6591045D01*
X4216400Y6600189D01*
X4230370Y6605015D01*
X4244086Y6605015D01*
X4258056Y6600189D01*
X4262627Y6595618D01*
X4267200Y6586473D01*
X4171950Y6526529D02*
G01*
X4162806Y6521704D01*
X4149090Y6507987D01*
X4149090Y6605015D01*
X4211827Y6761987D02*
G01*
X4258056Y6761987D01*
X4262627Y6803389D01*
X4258056Y6798818D01*
X4244086Y6794245D01*
X4230370Y6794245D01*
X4216400Y6798818D01*
X4207256Y6808215D01*
X4202429Y6821931D01*
X4202429Y6831329D01*
X4207256Y6845045D01*
X4216400Y6854189D01*
X4230370Y6859015D01*
X4244086Y6859015D01*
X4258056Y6854189D01*
X4262627Y6849618D01*
X4267200Y6840473D01*
X4162806Y6761987D02*
G01*
X4112006Y6761987D01*
X4139691Y6798818D01*
X4125975Y6798818D01*
X4116577Y6803389D01*
X4112006Y6808215D01*
X4107434Y6821931D01*
X4107434Y6831329D01*
X4112006Y6845045D01*
X4121150Y6854189D01*
X4135120Y6859015D01*
X4149090Y6859015D01*
X4162806Y6854189D01*
X4167377Y6849618D01*
X4171950Y6840473D01*
X9046463Y7311136D02*
G01*
X8949436Y7347965D01*
X9046463Y7311136D02*
G01*
X8949436Y7274052D01*
X8981947Y7333995D02*
G01*
X8981947Y7288021D01*
X9046463Y7215886D02*
G01*
X9041891Y7229855D01*
X9027922Y7239000D01*
X9005061Y7243571D01*
X8991091Y7243571D01*
X8967977Y7239000D01*
X8954261Y7229855D01*
X8949436Y7215886D01*
X8949436Y7206742D01*
X8954261Y7192771D01*
X8967977Y7183628D01*
X8991091Y7179055D01*
X9005061Y7179055D01*
X9027922Y7183628D01*
X9041891Y7192771D01*
X9046463Y7206742D01*
X9046463Y7215886D01*
X8817863Y7311136D02*
G01*
X8720836Y7347965D01*
X8817863Y7311136D02*
G01*
X8720836Y7274052D01*
X8753347Y7333995D02*
G01*
X8753347Y7288021D01*
X8799322Y7243571D02*
G01*
X8804147Y7234428D01*
X8817863Y7220458D01*
X8720836Y7220458D01*
X8538463Y7311136D02*
G01*
X8441436Y7347965D01*
X8538463Y7311136D02*
G01*
X8441436Y7274052D01*
X8473947Y7333995D02*
G01*
X8473947Y7288021D01*
X8515350Y7239000D02*
G01*
X8519922Y7239000D01*
X8529320Y7234428D01*
X8533891Y7229855D01*
X8538463Y7220458D01*
X8538463Y7201915D01*
X8533891Y7192771D01*
X8529320Y7188200D01*
X8519922Y7183628D01*
X8510777Y7183628D01*
X8501634Y7188200D01*
X8487663Y7197344D01*
X8441436Y7243571D01*
X8441436Y7179055D01*
X8284463Y7311136D02*
G01*
X8187436Y7347965D01*
X8284463Y7311136D02*
G01*
X8187436Y7274052D01*
X8219947Y7333995D02*
G01*
X8219947Y7288021D01*
X8284463Y7234428D02*
G01*
X8284463Y7183628D01*
X8247634Y7211313D01*
X8247634Y7197344D01*
X8243061Y7188200D01*
X8238236Y7183628D01*
X8224520Y7179055D01*
X8215122Y7179055D01*
X8201406Y7183628D01*
X8192261Y7192771D01*
X8187436Y7206742D01*
X8187436Y7220458D01*
X8192261Y7234428D01*
X8196834Y7239000D01*
X8205977Y7243571D01*
X8030463Y7311136D02*
G01*
X7933436Y7347965D01*
X8030463Y7311136D02*
G01*
X7933436Y7274052D01*
X7965947Y7333995D02*
G01*
X7965947Y7288021D01*
X8030463Y7197344D02*
G01*
X7965947Y7243571D01*
X7965947Y7174229D01*
X8030463Y7197344D02*
G01*
X7933436Y7197344D01*
X7789163Y7311136D02*
G01*
X7692136Y7347965D01*
X7789163Y7311136D02*
G01*
X7692136Y7274052D01*
X7724647Y7333995D02*
G01*
X7724647Y7288021D01*
X7789163Y7188200D02*
G01*
X7789163Y7234428D01*
X7747761Y7239000D01*
X7752334Y7234428D01*
X7756906Y7220458D01*
X7756906Y7206742D01*
X7752334Y7192771D01*
X7742936Y7183628D01*
X7729220Y7179055D01*
X7719822Y7179055D01*
X7706106Y7183628D01*
X7696961Y7192771D01*
X7692136Y7206742D01*
X7692136Y7220458D01*
X7696961Y7234428D01*
X7701534Y7239000D01*
X7710677Y7243571D01*
X7535163Y7311136D02*
G01*
X7438136Y7347965D01*
X7535163Y7311136D02*
G01*
X7438136Y7274052D01*
X7470647Y7333995D02*
G01*
X7470647Y7288021D01*
X7521447Y7188200D02*
G01*
X7530591Y7192771D01*
X7535163Y7206742D01*
X7535163Y7215886D01*
X7530591Y7229855D01*
X7516622Y7239000D01*
X7493761Y7243571D01*
X7470647Y7243571D01*
X7452106Y7239000D01*
X7442961Y7229855D01*
X7438136Y7215886D01*
X7438136Y7211313D01*
X7442961Y7197344D01*
X7452106Y7188200D01*
X7465822Y7183628D01*
X7470647Y7183628D01*
X7484363Y7188200D01*
X7493761Y7197344D01*
X7498334Y7211313D01*
X7498334Y7215886D01*
X7493761Y7229855D01*
X7484363Y7239000D01*
X7470647Y7243571D01*
X7268463Y7311136D02*
G01*
X7171436Y7347965D01*
X7268463Y7311136D02*
G01*
X7171436Y7274052D01*
X7203947Y7333995D02*
G01*
X7203947Y7288021D01*
X7268463Y7179055D02*
G01*
X7171436Y7225029D01*
X7268463Y7243571D02*
G01*
X7268463Y7179055D01*
X6760463Y7311136D02*
G01*
X6663436Y7347965D01*
X6760463Y7311136D02*
G01*
X6663436Y7274052D01*
X6695947Y7333995D02*
G01*
X6695947Y7288021D01*
X6760463Y7220458D02*
G01*
X6755891Y7234428D01*
X6746747Y7239000D01*
X6737350Y7239000D01*
X6728206Y7234428D01*
X6723634Y7225029D01*
X6719061Y7206742D01*
X6714236Y7192771D01*
X6705091Y7183628D01*
X6695947Y7179055D01*
X6681977Y7179055D01*
X6672834Y7183628D01*
X6668261Y7188200D01*
X6663436Y7201915D01*
X6663436Y7220458D01*
X6668261Y7234428D01*
X6672834Y7239000D01*
X6681977Y7243571D01*
X6695947Y7243571D01*
X6705091Y7239000D01*
X6714236Y7229855D01*
X6719061Y7215886D01*
X6723634Y7197344D01*
X6728206Y7188200D01*
X6737350Y7183628D01*
X6746747Y7183628D01*
X6755891Y7188200D01*
X6760463Y7201915D01*
X6760463Y7220458D01*
X6506463Y7311136D02*
G01*
X6409436Y7347965D01*
X6506463Y7311136D02*
G01*
X6409436Y7274052D01*
X6441947Y7333995D02*
G01*
X6441947Y7288021D01*
X6474206Y7183628D02*
G01*
X6460236Y7188200D01*
X6451091Y7197344D01*
X6446520Y7211313D01*
X6446520Y7215886D01*
X6451091Y7229855D01*
X6460236Y7239000D01*
X6474206Y7243571D01*
X6478777Y7243571D01*
X6492747Y7239000D01*
X6501891Y7229855D01*
X6506463Y7215886D01*
X6506463Y7211313D01*
X6501891Y7197344D01*
X6492747Y7188200D01*
X6474206Y7183628D01*
X6451091Y7183628D01*
X6427977Y7188200D01*
X6414261Y7197344D01*
X6409436Y7211313D01*
X6409436Y7220458D01*
X6414261Y7234428D01*
X6423406Y7239000D01*
X6252463Y7311136D02*
G01*
X6155436Y7347965D01*
X6252463Y7311136D02*
G01*
X6155436Y7274052D01*
X6187947Y7333995D02*
G01*
X6187947Y7288021D01*
X6233922Y7243571D02*
G01*
X6238747Y7234428D01*
X6252463Y7220458D01*
X6155436Y7220458D01*
X6252463Y7162292D02*
G01*
X6247891Y7176262D01*
X6233922Y7185405D01*
X6211061Y7189978D01*
X6197091Y7189978D01*
X6173977Y7185405D01*
X6160261Y7176262D01*
X6155436Y7162292D01*
X6155436Y7153147D01*
X6160261Y7139178D01*
X6173977Y7130034D01*
X6197091Y7125462D01*
X6211061Y7125462D01*
X6233922Y7130034D01*
X6247891Y7139178D01*
X6252463Y7153147D01*
X6252463Y7162292D01*
X5998463Y7311136D02*
G01*
X5901436Y7347965D01*
X5998463Y7311136D02*
G01*
X5901436Y7274052D01*
X5933947Y7333995D02*
G01*
X5933947Y7288021D01*
X5979922Y7243571D02*
G01*
X5984747Y7234428D01*
X5998463Y7220458D01*
X5901436Y7220458D01*
X5979922Y7189978D02*
G01*
X5984747Y7180834D01*
X5998463Y7166863D01*
X5901436Y7166863D01*
X5744463Y7311136D02*
G01*
X5647436Y7347965D01*
X5744463Y7311136D02*
G01*
X5647436Y7274052D01*
X5679947Y7333995D02*
G01*
X5679947Y7288021D01*
X5725922Y7243571D02*
G01*
X5730747Y7234428D01*
X5744463Y7220458D01*
X5647436Y7220458D01*
X5721350Y7185405D02*
G01*
X5725922Y7185405D01*
X5735320Y7180834D01*
X5739891Y7176262D01*
X5744463Y7166863D01*
X5744463Y7148576D01*
X5739891Y7139178D01*
X5735320Y7134605D01*
X5725922Y7130034D01*
X5716777Y7130034D01*
X5707634Y7134605D01*
X5693663Y7143750D01*
X5647436Y7189978D01*
X5647436Y7125462D01*
X5490463Y7311136D02*
G01*
X5393436Y7347965D01*
X5490463Y7311136D02*
G01*
X5393436Y7274052D01*
X5425947Y7333995D02*
G01*
X5425947Y7288021D01*
X5471922Y7243571D02*
G01*
X5476747Y7234428D01*
X5490463Y7220458D01*
X5393436Y7220458D01*
X5490463Y7180834D02*
G01*
X5490463Y7130034D01*
X5453634Y7157720D01*
X5453634Y7143750D01*
X5449061Y7134605D01*
X5444236Y7130034D01*
X5430520Y7125462D01*
X5421122Y7125462D01*
X5407406Y7130034D01*
X5398261Y7139178D01*
X5393436Y7153147D01*
X5393436Y7166863D01*
X5398261Y7180834D01*
X5402834Y7185405D01*
X5411977Y7189978D01*
X5236463Y7311136D02*
G01*
X5139436Y7347965D01*
X5236463Y7311136D02*
G01*
X5139436Y7274052D01*
X5171947Y7333995D02*
G01*
X5171947Y7288021D01*
X5217922Y7243571D02*
G01*
X5222747Y7234428D01*
X5236463Y7220458D01*
X5139436Y7220458D01*
X5236463Y7143750D02*
G01*
X5171947Y7189978D01*
X5171947Y7120636D01*
X5236463Y7143750D02*
G01*
X5139436Y7143750D01*
X4995163Y7311136D02*
G01*
X4898136Y7347965D01*
X4995163Y7311136D02*
G01*
X4898136Y7274052D01*
X4930647Y7333995D02*
G01*
X4930647Y7288021D01*
X4976622Y7243571D02*
G01*
X4981447Y7234428D01*
X4995163Y7220458D01*
X4898136Y7220458D01*
X4995163Y7134605D02*
G01*
X4995163Y7180834D01*
X4953761Y7185405D01*
X4958334Y7180834D01*
X4962906Y7166863D01*
X4962906Y7153147D01*
X4958334Y7139178D01*
X4948936Y7130034D01*
X4935220Y7125462D01*
X4925822Y7125462D01*
X4912106Y7130034D01*
X4902961Y7139178D01*
X4898136Y7153147D01*
X4898136Y7166863D01*
X4902961Y7180834D01*
X4907534Y7185405D01*
X4916677Y7189978D01*
X4159758Y7027926D02*
G01*
X4150359Y7023354D01*
X4141215Y7013955D01*
X4136643Y7004812D01*
X4136643Y6986270D01*
X4141215Y6977126D01*
X4150359Y6967728D01*
X4159758Y6963155D01*
X4173474Y6958584D01*
X4196588Y6958584D01*
X4210558Y6963155D01*
X4219702Y6967728D01*
X4228845Y6977126D01*
X4233672Y6986270D01*
X4233672Y7004812D01*
X4228845Y7013955D01*
X4219702Y7023354D01*
X4210558Y7027926D01*
X4196588Y7027926D01*
X4196588Y7004812D02*
G01*
X4196588Y7027926D01*
X4136643Y7058405D02*
G01*
X4233672Y7058405D01*
X4136643Y7058405D02*
G01*
X4233672Y7122921D01*
X4136643Y7122921D02*
G01*
X4233672Y7122921D01*
X4136643Y7153402D02*
G01*
X4233672Y7153402D01*
X4136643Y7153402D02*
G01*
X4136643Y7185913D01*
X4141215Y7199629D01*
X4150359Y7208773D01*
X4159758Y7213600D01*
X4173474Y7218171D01*
X4196588Y7218171D01*
X4210558Y7213600D01*
X4219702Y7208773D01*
X4228845Y7199629D01*
X4233672Y7185913D01*
X4233672Y7153402D01*
X8036052Y3046221D02*
G01*
X7939024Y3046221D01*
X8036052Y3078479D02*
G01*
X8036052Y3013710D01*
X8036052Y2983229D02*
G01*
X7939024Y2918713D01*
X8036052Y2918713D02*
G01*
X7939024Y2983229D01*
X7782052Y3078479D02*
G01*
X7685024Y3078479D01*
X7782052Y3078479D02*
G01*
X7782052Y3036823D01*
X7777479Y3023107D01*
X7772908Y3018536D01*
X7763509Y3013710D01*
X7754365Y3013710D01*
X7745222Y3018536D01*
X7740650Y3023107D01*
X7735824Y3036823D01*
X7735824Y3078479D01*
X7735824Y3046221D02*
G01*
X7685024Y3013710D01*
X7782052Y2983229D02*
G01*
X7685024Y2918713D01*
X7782052Y2918713D02*
G01*
X7685024Y2983229D01*
X7281672Y3307842D02*
G01*
X7184643Y3307842D01*
X7281672Y3340100D02*
G01*
X7281672Y3275329D01*
X7281672Y3244850D02*
G01*
X7184643Y3180334D01*
X7281672Y3180334D02*
G01*
X7184643Y3244850D01*
X7281672Y3140710D02*
G01*
X7281672Y3089910D01*
X7244841Y3117595D01*
X7244841Y3103626D01*
X7240270Y3094481D01*
X7235443Y3089910D01*
X7221727Y3085084D01*
X7212329Y3085084D01*
X7198613Y3089910D01*
X7189470Y3099054D01*
X7184643Y3112770D01*
X7184643Y3126739D01*
X7189470Y3140710D01*
X7194041Y3145281D01*
X7203186Y3149854D01*
X7027672Y3340100D02*
G01*
X6930643Y3340100D01*
X7027672Y3340100D02*
G01*
X7027672Y3298444D01*
X7023100Y3284728D01*
X7018527Y3280155D01*
X7009129Y3275329D01*
X6999986Y3275329D01*
X6990841Y3280155D01*
X6986270Y3284728D01*
X6981443Y3298444D01*
X6981443Y3340100D01*
X6981443Y3307842D02*
G01*
X6930643Y3275329D01*
X7027672Y3244850D02*
G01*
X6930643Y3180334D01*
X7027672Y3180334D02*
G01*
X6930643Y3244850D01*
X7027672Y3140710D02*
G01*
X7027672Y3089910D01*
X6990841Y3117595D01*
X6990841Y3103626D01*
X6986270Y3094481D01*
X6981443Y3089910D01*
X6967727Y3085084D01*
X6958329Y3085084D01*
X6944613Y3089910D01*
X6935470Y3099054D01*
X6930643Y3112770D01*
X6930643Y3126739D01*
X6935470Y3140710D01*
X6940041Y3145281D01*
X6949186Y3149854D01*
X6773672Y3307842D02*
G01*
X6676643Y3307842D01*
X6773672Y3340100D02*
G01*
X6773672Y3275329D01*
X6773672Y3244850D02*
G01*
X6676643Y3180334D01*
X6773672Y3180334D02*
G01*
X6676643Y3244850D01*
X6750558Y3145281D02*
G01*
X6755129Y3145281D01*
X6764527Y3140710D01*
X6769100Y3135884D01*
X6773672Y3126739D01*
X6773672Y3108197D01*
X6769100Y3099054D01*
X6764527Y3094481D01*
X6755129Y3089910D01*
X6745986Y3089910D01*
X6736841Y3094481D01*
X6722872Y3103626D01*
X6676643Y3149854D01*
X6676643Y3085084D01*
X6519672Y3340100D02*
G01*
X6422643Y3340100D01*
X6519672Y3340100D02*
G01*
X6519672Y3298444D01*
X6515100Y3284728D01*
X6510527Y3280155D01*
X6501129Y3275329D01*
X6491986Y3275329D01*
X6482841Y3280155D01*
X6478270Y3284728D01*
X6473443Y3298444D01*
X6473443Y3340100D01*
X6473443Y3307842D02*
G01*
X6422643Y3275329D01*
X6519672Y3244850D02*
G01*
X6422643Y3180334D01*
X6519672Y3180334D02*
G01*
X6422643Y3244850D01*
X6496558Y3145281D02*
G01*
X6501129Y3145281D01*
X6510527Y3140710D01*
X6515100Y3135884D01*
X6519672Y3126739D01*
X6519672Y3108197D01*
X6515100Y3099054D01*
X6510527Y3094481D01*
X6501129Y3089910D01*
X6491986Y3089910D01*
X6482841Y3094481D01*
X6468872Y3103626D01*
X6422643Y3149854D01*
X6422643Y3085084D01*
X6265672Y3307842D02*
G01*
X6168643Y3307842D01*
X6265672Y3340100D02*
G01*
X6265672Y3275329D01*
X6265672Y3244850D02*
G01*
X6168643Y3180334D01*
X6265672Y3180334D02*
G01*
X6168643Y3244850D01*
X6247129Y3149854D02*
G01*
X6251956Y3140710D01*
X6265672Y3126739D01*
X6168643Y3126739D01*
X6011672Y3340100D02*
G01*
X5914643Y3340100D01*
X6011672Y3340100D02*
G01*
X6011672Y3298444D01*
X6007100Y3284728D01*
X6002527Y3280155D01*
X5993129Y3275329D01*
X5983986Y3275329D01*
X5974841Y3280155D01*
X5970270Y3284728D01*
X5965443Y3298444D01*
X5965443Y3340100D01*
X5965443Y3307842D02*
G01*
X5914643Y3275329D01*
X6011672Y3244850D02*
G01*
X5914643Y3180334D01*
X6011672Y3180334D02*
G01*
X5914643Y3244850D01*
X5993129Y3149854D02*
G01*
X5997956Y3140710D01*
X6011672Y3126739D01*
X5914643Y3126739D01*
X5743956Y3305810D02*
G01*
X5753100Y3315207D01*
X5757672Y3328923D01*
X5757672Y3347465D01*
X5753100Y3361436D01*
X5743956Y3370579D01*
X5734558Y3370579D01*
X5725413Y3366007D01*
X5720841Y3361436D01*
X5716270Y3352037D01*
X5706872Y3324352D01*
X5702300Y3315207D01*
X5697727Y3310636D01*
X5688329Y3305810D01*
X5674613Y3305810D01*
X5665470Y3315207D01*
X5660643Y3328923D01*
X5660643Y3347465D01*
X5665470Y3361436D01*
X5674613Y3370579D01*
X5757672Y3275329D02*
G01*
X5660643Y3275329D01*
X5757672Y3275329D02*
G01*
X5757672Y3243071D01*
X5753100Y3229355D01*
X5743956Y3219957D01*
X5734558Y3215386D01*
X5720841Y3210813D01*
X5697727Y3210813D01*
X5683758Y3215386D01*
X5674613Y3219957D01*
X5665470Y3229355D01*
X5660643Y3243071D01*
X5660643Y3275329D01*
X5757672Y3143250D02*
G01*
X5660643Y3180334D01*
X5757672Y3143250D02*
G01*
X5660643Y3106420D01*
X5693156Y3166363D02*
G01*
X5693156Y3120389D01*
X5489956Y3275329D02*
G01*
X5499100Y3284728D01*
X5503672Y3298444D01*
X5503672Y3316986D01*
X5499100Y3330955D01*
X5489956Y3340100D01*
X5480558Y3340100D01*
X5471413Y3335528D01*
X5466841Y3330955D01*
X5462270Y3321557D01*
X5452872Y3293871D01*
X5448300Y3284728D01*
X5443727Y3280155D01*
X5434329Y3275329D01*
X5420613Y3275329D01*
X5411470Y3284728D01*
X5406643Y3298444D01*
X5406643Y3316986D01*
X5411470Y3330955D01*
X5420613Y3340100D01*
X5480558Y3175762D02*
G01*
X5489956Y3180334D01*
X5499100Y3189478D01*
X5503672Y3198876D01*
X5503672Y3217163D01*
X5499100Y3226562D01*
X5489956Y3235705D01*
X5480558Y3240278D01*
X5466841Y3244850D01*
X5443727Y3244850D01*
X5429758Y3240278D01*
X5420613Y3235705D01*
X5411470Y3226562D01*
X5406643Y3217163D01*
X5406643Y3198876D01*
X5411470Y3189478D01*
X5420613Y3180334D01*
X5429758Y3175762D01*
X5503672Y3145281D02*
G01*
X5406643Y3145281D01*
X5406643Y3145281D02*
G01*
X5406643Y3089910D01*
X10824463Y7347965D02*
G01*
X10727436Y7347965D01*
X10824463Y7347965D02*
G01*
X10824463Y7306310D01*
X10819891Y7292594D01*
X10815320Y7288021D01*
X10805922Y7283195D01*
X10796777Y7283195D01*
X10787634Y7288021D01*
X10783061Y7292594D01*
X10778236Y7306310D01*
X10778236Y7347965D01*
X10778236Y7315708D02*
G01*
X10727436Y7283195D01*
X10824463Y7252715D02*
G01*
X10727436Y7252715D01*
X10824463Y7252715D02*
G01*
X10824463Y7192771D01*
X10778236Y7252715D02*
G01*
X10778236Y7215886D01*
X10727436Y7252715D02*
G01*
X10727436Y7192771D01*
X10810747Y7097776D02*
G01*
X10819891Y7106920D01*
X10824463Y7120636D01*
X10824463Y7139178D01*
X10819891Y7153147D01*
X10810747Y7162292D01*
X10801350Y7162292D01*
X10792206Y7157720D01*
X10787634Y7153147D01*
X10783061Y7143750D01*
X10773663Y7116063D01*
X10769091Y7106920D01*
X10764520Y7102347D01*
X10755122Y7097776D01*
X10741406Y7097776D01*
X10732261Y7106920D01*
X10727436Y7120636D01*
X10727436Y7139178D01*
X10732261Y7153147D01*
X10741406Y7162292D01*
X10824463Y7067295D02*
G01*
X10727436Y7067295D01*
X10824463Y7067295D02*
G01*
X10824463Y7007097D01*
X10778236Y7067295D02*
G01*
X10778236Y7030212D01*
X10727436Y7067295D02*
G01*
X10727436Y7007097D01*
X10824463Y6944360D02*
G01*
X10727436Y6944360D01*
X10824463Y6976618D02*
G01*
X10824463Y6912102D01*
X10570463Y7338821D02*
G01*
X10570463Y7288021D01*
X10533634Y7315708D01*
X10533634Y7301737D01*
X10529061Y7292594D01*
X10524236Y7288021D01*
X10510520Y7283195D01*
X10501122Y7283195D01*
X10487406Y7288021D01*
X10478261Y7297165D01*
X10473436Y7311136D01*
X10473436Y7324852D01*
X10478261Y7338821D01*
X10482834Y7343394D01*
X10491977Y7347965D01*
X10570463Y7252715D02*
G01*
X10473436Y7215886D01*
X10570463Y7179055D02*
G01*
X10473436Y7215886D01*
X10570463Y7139178D02*
G01*
X10570463Y7088378D01*
X10533634Y7116063D01*
X10533634Y7102347D01*
X10529061Y7092950D01*
X10524236Y7088378D01*
X10510520Y7083805D01*
X10501122Y7083805D01*
X10487406Y7088378D01*
X10478261Y7097776D01*
X10473436Y7111492D01*
X10473436Y7125462D01*
X10478261Y7139178D01*
X10482834Y7143750D01*
X10491977Y7148576D01*
X10316463Y7292594D02*
G01*
X10316463Y7338821D01*
X10275061Y7343394D01*
X10279634Y7338821D01*
X10284206Y7324852D01*
X10284206Y7311136D01*
X10279634Y7297165D01*
X10270236Y7288021D01*
X10256520Y7283195D01*
X10247122Y7283195D01*
X10233406Y7288021D01*
X10224261Y7297165D01*
X10219436Y7311136D01*
X10219436Y7324852D01*
X10224261Y7338821D01*
X10228834Y7343394D01*
X10237977Y7347965D01*
X10316463Y7252715D02*
G01*
X10219436Y7215886D01*
X10316463Y7179055D02*
G01*
X10219436Y7215886D01*
X10316463Y7120636D02*
G01*
X10311891Y7134605D01*
X10297922Y7143750D01*
X10275061Y7148576D01*
X10261091Y7148576D01*
X10237977Y7143750D01*
X10224261Y7134605D01*
X10219436Y7120636D01*
X10219436Y7111492D01*
X10224261Y7097776D01*
X10237977Y7088378D01*
X10261091Y7083805D01*
X10275061Y7083805D01*
X10297922Y7088378D01*
X10311891Y7097776D01*
X10316463Y7111492D01*
X10316463Y7120636D01*
X10039350Y7278623D02*
G01*
X10048747Y7283195D01*
X10057891Y7292594D01*
X10062463Y7301737D01*
X10062463Y7320279D01*
X10057891Y7329423D01*
X10048747Y7338821D01*
X10039350Y7343394D01*
X10025634Y7347965D01*
X10002520Y7347965D01*
X9988550Y7343394D01*
X9979406Y7338821D01*
X9970261Y7329423D01*
X9965436Y7320279D01*
X9965436Y7301737D01*
X9970261Y7292594D01*
X9979406Y7283195D01*
X9988550Y7278623D01*
X10002520Y7278623D01*
X10002520Y7301737D02*
G01*
X10002520Y7278623D01*
X10062463Y7248144D02*
G01*
X9965436Y7248144D01*
X10062463Y7248144D02*
G01*
X9965436Y7183628D01*
X10062463Y7183628D02*
G01*
X9965436Y7183628D01*
X10062463Y7153147D02*
G01*
X9965436Y7153147D01*
X10062463Y7153147D02*
G01*
X10062463Y7120636D01*
X10057891Y7106920D01*
X10048747Y7097776D01*
X10039350Y7092950D01*
X10025634Y7088378D01*
X10002520Y7088378D01*
X9988550Y7092950D01*
X9979406Y7097776D01*
X9970261Y7106920D01*
X9965436Y7120636D01*
X9965436Y7153147D01*
X9785350Y7278623D02*
G01*
X9794747Y7283195D01*
X9803891Y7292594D01*
X9808463Y7301737D01*
X9808463Y7320279D01*
X9803891Y7329423D01*
X9794747Y7338821D01*
X9785350Y7343394D01*
X9771634Y7347965D01*
X9748520Y7347965D01*
X9734550Y7343394D01*
X9725406Y7338821D01*
X9716261Y7329423D01*
X9711436Y7320279D01*
X9711436Y7301737D01*
X9716261Y7292594D01*
X9725406Y7283195D01*
X9734550Y7278623D01*
X9748520Y7278623D01*
X9748520Y7301737D02*
G01*
X9748520Y7278623D01*
X9808463Y7248144D02*
G01*
X9711436Y7248144D01*
X9808463Y7248144D02*
G01*
X9711436Y7183628D01*
X9808463Y7183628D02*
G01*
X9711436Y7183628D01*
X9808463Y7153147D02*
G01*
X9711436Y7153147D01*
X9808463Y7153147D02*
G01*
X9808463Y7120636D01*
X9803891Y7106920D01*
X9794747Y7097776D01*
X9785350Y7092950D01*
X9771634Y7088378D01*
X9748520Y7088378D01*
X9734550Y7092950D01*
X9725406Y7097776D01*
X9716261Y7106920D01*
X9711436Y7120636D01*
X9711436Y7153147D01*
X9554463Y7347965D02*
G01*
X9457436Y7311136D01*
X9554463Y7274052D02*
G01*
X9457436Y7311136D01*
X9554463Y7243571D02*
G01*
X9457436Y7243571D01*
X9554463Y7213092D02*
G01*
X9457436Y7213092D01*
X9554463Y7213092D02*
G01*
X9457436Y7148576D01*
X9554463Y7148576D02*
G01*
X9457436Y7148576D01*
X11467338Y3070097D02*
G01*
X11476736Y3074670D01*
X11485879Y3084068D01*
X11490452Y3093212D01*
X11490452Y3111754D01*
X11485879Y3120897D01*
X11476736Y3130295D01*
X11467338Y3134868D01*
X11453622Y3139439D01*
X11430508Y3139439D01*
X11416538Y3134868D01*
X11407393Y3130295D01*
X11398250Y3120897D01*
X11393424Y3111754D01*
X11393424Y3093212D01*
X11398250Y3084068D01*
X11407393Y3074670D01*
X11416538Y3070097D01*
X11430508Y3070097D01*
X11430508Y3093212D02*
G01*
X11430508Y3070097D01*
X11490452Y3039618D02*
G01*
X11393424Y3039618D01*
X11490452Y3039618D02*
G01*
X11393424Y2975102D01*
X11490452Y2975102D02*
G01*
X11393424Y2975102D01*
X11490452Y2944621D02*
G01*
X11393424Y2944621D01*
X11490452Y2944621D02*
G01*
X11490452Y2912110D01*
X11485879Y2898394D01*
X11476736Y2889250D01*
X11467338Y2884423D01*
X11453622Y2879852D01*
X11430508Y2879852D01*
X11416538Y2884423D01*
X11407393Y2889250D01*
X11398250Y2898394D01*
X11393424Y2912110D01*
X11393424Y2944621D01*
X11754611Y3171189D02*
G01*
X11657584Y3208020D01*
X11754611Y3171189D02*
G01*
X11657584Y3134105D01*
X11690095Y3194050D02*
G01*
X11690095Y3148076D01*
X11754611Y3103626D02*
G01*
X11657584Y3103626D01*
X11754611Y3103626D02*
G01*
X11754611Y3061970D01*
X11750040Y3048254D01*
X11745468Y3043681D01*
X11736070Y3039110D01*
X11726925Y3039110D01*
X11717781Y3043681D01*
X11713209Y3048254D01*
X11708384Y3061970D01*
X11708384Y3103626D01*
X11708384Y3071368D02*
G01*
X11657584Y3039110D01*
X11754611Y3008629D02*
G01*
X11657584Y3008629D01*
X11754611Y3008629D02*
G01*
X11754611Y2948431D01*
X11708384Y3008629D02*
G01*
X11708384Y2971545D01*
X11657584Y3008629D02*
G01*
X11657584Y2948431D01*
X11754611Y2917952D02*
G01*
X11657584Y2917952D01*
X11754611Y2917952D02*
G01*
X11754611Y2858007D01*
X11708384Y2917952D02*
G01*
X11708384Y2881121D01*
X4985765Y2676652D02*
G01*
X5031993Y2676652D01*
X5036565Y2718054D01*
X5031993Y2713481D01*
X5018024Y2708910D01*
X5004308Y2708910D01*
X4990338Y2713481D01*
X4981193Y2722879D01*
X4976368Y2736595D01*
X4976368Y2745994D01*
X4981193Y2759710D01*
X4990338Y2768854D01*
X5004308Y2773679D01*
X5018024Y2773679D01*
X5031993Y2768854D01*
X5036565Y2764281D01*
X5041138Y2755137D01*
X4945888Y2676652D02*
G01*
X4909058Y2773679D01*
X4872227Y2676652D02*
G01*
X4909058Y2773679D01*
X11994895Y3128010D02*
G01*
X12004040Y3137407D01*
X12008611Y3151123D01*
X12008611Y3169665D01*
X12004040Y3183636D01*
X11994895Y3192779D01*
X11985497Y3192779D01*
X11976354Y3188207D01*
X11971781Y3183636D01*
X11967209Y3174237D01*
X11957811Y3146552D01*
X11953240Y3137407D01*
X11948668Y3132836D01*
X11939270Y3128010D01*
X11925554Y3128010D01*
X11916409Y3137407D01*
X11911584Y3151123D01*
X11911584Y3169665D01*
X11916409Y3183636D01*
X11925554Y3192779D01*
X12008611Y3097529D02*
G01*
X11911584Y3097529D01*
X12008611Y3097529D02*
G01*
X12008611Y3065271D01*
X12004040Y3051555D01*
X11994895Y3042157D01*
X11985497Y3037586D01*
X11971781Y3033013D01*
X11948668Y3033013D01*
X11934697Y3037586D01*
X11925554Y3042157D01*
X11916409Y3051555D01*
X11911584Y3065271D01*
X11911584Y3097529D01*
X12008611Y2965450D02*
G01*
X11911584Y3002534D01*
X12008611Y2965450D02*
G01*
X11911584Y2928620D01*
X11944095Y2988563D02*
G01*
X11944095Y2942589D01*
X11990070Y2898139D02*
G01*
X11994895Y2888995D01*
X12008611Y2875026D01*
X11911584Y2875026D01*
X12248895Y3112770D02*
G01*
X12258040Y3122168D01*
X12262611Y3135884D01*
X12262611Y3154426D01*
X12258040Y3168395D01*
X12248895Y3177539D01*
X12239497Y3177539D01*
X12230354Y3172968D01*
X12225781Y3168395D01*
X12221209Y3158997D01*
X12211811Y3131312D01*
X12207240Y3122168D01*
X12202668Y3117595D01*
X12193270Y3112770D01*
X12179554Y3112770D01*
X12170409Y3122168D01*
X12165584Y3135884D01*
X12165584Y3154426D01*
X12170409Y3168395D01*
X12179554Y3177539D01*
X12239497Y3013202D02*
G01*
X12248895Y3017773D01*
X12258040Y3026918D01*
X12262611Y3036315D01*
X12262611Y3054604D01*
X12258040Y3064002D01*
X12248895Y3073145D01*
X12239497Y3077718D01*
X12225781Y3082289D01*
X12202668Y3082289D01*
X12188697Y3077718D01*
X12179554Y3073145D01*
X12170409Y3064002D01*
X12165584Y3054604D01*
X12165584Y3036315D01*
X12170409Y3026918D01*
X12179554Y3017773D01*
X12188697Y3013202D01*
X12262611Y2982721D02*
G01*
X12165584Y2982721D01*
X12165584Y2982721D02*
G01*
X12165584Y2927350D01*
X12244070Y2896870D02*
G01*
X12248895Y2887471D01*
X12262611Y2873755D01*
X12165584Y2873755D01*
X11078463Y7347965D02*
G01*
X10981436Y7347965D01*
X11078463Y7289800D02*
G01*
X11073891Y7298944D01*
X11064747Y7308342D01*
X11055350Y7312913D01*
X11041634Y7317486D01*
X11018520Y7317486D01*
X11004550Y7312913D01*
X10995406Y7308342D01*
X10986261Y7298944D01*
X10981436Y7289800D01*
X10981436Y7271258D01*
X10986261Y7262113D01*
X10995406Y7252715D01*
X11004550Y7248144D01*
X11018520Y7243571D01*
X11041634Y7243571D01*
X11055350Y7248144D01*
X11064747Y7252715D01*
X11073891Y7262113D01*
X11078463Y7271258D01*
X11078463Y7289800D01*
X11078463Y7213092D02*
G01*
X10981436Y7213092D01*
X11078463Y7213092D02*
G01*
X11078463Y7171436D01*
X11073891Y7157720D01*
X11069320Y7153147D01*
X11059922Y7148576D01*
X11050777Y7148576D01*
X11041634Y7153147D01*
X11037061Y7157720D01*
X11032236Y7171436D01*
X11032236Y7213092D01*
X11032236Y7180834D02*
G01*
X10981436Y7148576D01*
X11078463Y7118095D02*
G01*
X10981436Y7118095D01*
X11078463Y7118095D02*
G01*
X11078463Y7057897D01*
X11032236Y7118095D02*
G01*
X11032236Y7081012D01*
X10981436Y7118095D02*
G01*
X10981436Y7057897D01*
X11078463Y7027418D02*
G01*
X10981436Y7027418D01*
X11078463Y7027418D02*
G01*
X11078463Y6967473D01*
X11032236Y7027418D02*
G01*
X11032236Y6990587D01*
X11332463Y7347965D02*
G01*
X11235436Y7347965D01*
X11332463Y7347965D02*
G01*
X11332463Y7306310D01*
X11327891Y7292594D01*
X11323320Y7288021D01*
X11313922Y7283195D01*
X11304777Y7283195D01*
X11295634Y7288021D01*
X11291061Y7292594D01*
X11286236Y7306310D01*
X11286236Y7347965D01*
X11286236Y7315708D02*
G01*
X11235436Y7283195D01*
X11332463Y7252715D02*
G01*
X11235436Y7252715D01*
X11332463Y7252715D02*
G01*
X11332463Y7192771D01*
X11286236Y7252715D02*
G01*
X11286236Y7215886D01*
X11332463Y7162292D02*
G01*
X11263122Y7162292D01*
X11249406Y7157720D01*
X11240261Y7148576D01*
X11235436Y7134605D01*
X11235436Y7125462D01*
X11240261Y7111492D01*
X11249406Y7102347D01*
X11263122Y7097776D01*
X11332463Y7097776D01*
X7220965Y4670044D02*
G01*
X7319263Y4670044D01*
X7246111Y4769865D02*
G01*
X7236713Y4765294D01*
X7227061Y4755895D01*
X7220965Y4746497D01*
X7220965Y4728210D01*
X7227061Y4719065D01*
X7236713Y4709668D01*
X7246111Y4705095D01*
X7258811Y4700523D01*
X7281163Y4700523D01*
X7296911Y4705095D01*
X7306563Y4709668D01*
X7315454Y4719065D01*
X7319263Y4728210D01*
X7319263Y4746497D01*
X7315454Y4755895D01*
X7306563Y4765294D01*
X7296911Y4769865D01*
X7236713Y4864862D02*
G01*
X7227061Y4855718D01*
X7220965Y4841747D01*
X7220965Y4823460D01*
X7227061Y4809236D01*
X7236713Y4800345D01*
X7246111Y4800345D01*
X7255763Y4804918D01*
X7258811Y4809236D01*
X7264654Y4818634D01*
X7271765Y4846573D01*
X7277861Y4855718D01*
X7281163Y4860036D01*
X7290561Y4864862D01*
X7306563Y4864862D01*
X7315454Y4855718D01*
X7319263Y4841747D01*
X7319263Y4823460D01*
X7315454Y4809236D01*
X7306563Y4800345D01*
X7220965Y4895342D02*
G01*
X7319263Y4895342D01*
X7220965Y4895342D02*
G01*
X7220965Y4936997D01*
X7227061Y4950460D01*
X7230363Y4955286D01*
X7239761Y4960112D01*
X7255763Y4960112D01*
X7264654Y4955286D01*
X7268463Y4950460D01*
X7271765Y4936997D01*
X7271765Y4895342D01*
X7204963Y5073395D02*
G01*
X7351013Y4990592D01*
X7236713Y5168645D02*
G01*
X7227061Y5159247D01*
X7220965Y5145786D01*
X7220965Y5127244D01*
X7227061Y5113273D01*
X7236713Y5104129D01*
X7246111Y5104129D01*
X7255763Y5108447D01*
X7258811Y5113273D01*
X7264654Y5122671D01*
X7271765Y5150357D01*
X7277861Y5159247D01*
X7281163Y5164073D01*
X7290561Y5168645D01*
X7306563Y5168645D01*
X7315454Y5159247D01*
X7319263Y5145786D01*
X7319263Y5127244D01*
X7315454Y5113273D01*
X7306563Y5104129D01*
X7220965Y5199379D02*
G01*
X7319263Y5199379D01*
X7220965Y5199379D02*
G01*
X7220965Y5240781D01*
X7227061Y5254497D01*
X7230363Y5259323D01*
X7239761Y5263895D01*
X7255763Y5263895D01*
X7264654Y5259323D01*
X7268463Y5254497D01*
X7271765Y5240781D01*
X7271765Y5199379D01*
X7220965Y5294121D02*
G01*
X7319263Y5294121D01*
X7748270Y4533900D02*
G01*
X7741411Y4530344D01*
X7730997Y4519929D01*
X7730997Y4592828D01*
X9720488Y668233D02*
G01*
X9710074Y662899D01*
X9699660Y652485D01*
X9694580Y642325D01*
X9694580Y621497D01*
X9699660Y611083D01*
X9710074Y600669D01*
X9720488Y595335D01*
X9736236Y590255D01*
X9762144Y590255D01*
X9777638Y595335D01*
X9788052Y600669D01*
X9798466Y611083D01*
X9803546Y621497D01*
X9803546Y642325D01*
X9798466Y652485D01*
X9788052Y662899D01*
X9777638Y668233D01*
X9715408Y702523D02*
G01*
X9710074Y712937D01*
X9694580Y728431D01*
X9803546Y728431D01*
X6926488Y655533D02*
G01*
X6916074Y650199D01*
X6905660Y639785D01*
X6900580Y629625D01*
X6900580Y608797D01*
X6905660Y598383D01*
X6916074Y587969D01*
X6926488Y582635D01*
X6942236Y577555D01*
X6968144Y577555D01*
X6983638Y582635D01*
X6994052Y587969D01*
X7004466Y598383D01*
X7009546Y608797D01*
X7009546Y629625D01*
X7004466Y639785D01*
X6994052Y650199D01*
X6983638Y655533D01*
X6926488Y694903D02*
G01*
X6921408Y694903D01*
X6910994Y700237D01*
X6905660Y705317D01*
X6900580Y715731D01*
X6900580Y736559D01*
X6905660Y746973D01*
X6910994Y752053D01*
X6921408Y757387D01*
X6931822Y757387D01*
X6942236Y752053D01*
X6957730Y741639D01*
X7009546Y689823D01*
X7009546Y762467D01*
X4399188Y693633D02*
G01*
X4388774Y688299D01*
X4378360Y677885D01*
X4373280Y667725D01*
X4373280Y646897D01*
X4378360Y636483D01*
X4388774Y626069D01*
X4399188Y620735D01*
X4414936Y615655D01*
X4440844Y615655D01*
X4456338Y620735D01*
X4466752Y626069D01*
X4477166Y636483D01*
X4482246Y646897D01*
X4482246Y667725D01*
X4477166Y677885D01*
X4466752Y688299D01*
X4456338Y693633D01*
X4373280Y738337D02*
G01*
X4373280Y795487D01*
X4414936Y764245D01*
X4414936Y779739D01*
X4420016Y790153D01*
X4425096Y795487D01*
X4440844Y800567D01*
X4451258Y800567D01*
X4466752Y795487D01*
X4477166Y785073D01*
X4482246Y769325D01*
X4482246Y753831D01*
X4477166Y738337D01*
X4472086Y733003D01*
X4461672Y727923D01*
X12514488Y452333D02*
G01*
X12504074Y446999D01*
X12493660Y436585D01*
X12488580Y426425D01*
X12488580Y405597D01*
X12493660Y395183D01*
X12504074Y384769D01*
X12514488Y379435D01*
X12530236Y374355D01*
X12556144Y374355D01*
X12571638Y379435D01*
X12582052Y384769D01*
X12592466Y395183D01*
X12597546Y405597D01*
X12597546Y426425D01*
X12592466Y436585D01*
X12582052Y446999D01*
X12571638Y452333D01*
X12488580Y548853D02*
G01*
X12488580Y497037D01*
X12535316Y491703D01*
X12530236Y497037D01*
X12524902Y512531D01*
X12524902Y528025D01*
X12530236Y543773D01*
X12540396Y554187D01*
X12556144Y559267D01*
X12566558Y559267D01*
X12582052Y554187D01*
X12592466Y543773D01*
X12597546Y528025D01*
X12597546Y512531D01*
X12592466Y497037D01*
X12587386Y491703D01*
X12576972Y486623D01*
X1891284Y4370070D02*
G01*
X1974341Y4370070D01*
X1990090Y4364736D01*
X1995170Y4359655D01*
X2000250Y4349242D01*
X2000250Y4338828D01*
X1995170Y4328413D01*
X1990090Y4323079D01*
X1974341Y4318000D01*
X1963927Y4318000D01*
X1912112Y4404360D02*
G01*
X1906778Y4414520D01*
X1891284Y4430268D01*
X2000250Y4430268D01*
X13615670Y-1573784D02*
G01*
X13615670Y-1656842D01*
X13610336Y-1672589D01*
X13605256Y-1677670D01*
X13594841Y-1682750D01*
X13584427Y-1682750D01*
X13574013Y-1677670D01*
X13568679Y-1672589D01*
X13563600Y-1656842D01*
X13563600Y-1646428D01*
X13655040Y-1599692D02*
G01*
X13655040Y-1594612D01*
X13660120Y-1584197D01*
X13665454Y-1578863D01*
X13675868Y-1573784D01*
X13696695Y-1573784D01*
X13707109Y-1578863D01*
X13712190Y-1584197D01*
X13717270Y-1594612D01*
X13717270Y-1605026D01*
X13712190Y-1615439D01*
X13701775Y-1630934D01*
X13649959Y-1682750D01*
X13722604Y-1682750D01*
X10808970Y-1599184D02*
G01*
X10808970Y-1682242D01*
X10803636Y-1697989D01*
X10798556Y-1703070D01*
X10788141Y-1708150D01*
X10777727Y-1708150D01*
X10767313Y-1703070D01*
X10761979Y-1697989D01*
X10756900Y-1682242D01*
X10756900Y-1671828D01*
X10905490Y-1599184D02*
G01*
X10853420Y-1599184D01*
X10848340Y-1645920D01*
X10853420Y-1640839D01*
X10869168Y-1635505D01*
X10884661Y-1635505D01*
X10900409Y-1640839D01*
X10910570Y-1651000D01*
X10915904Y-1666747D01*
X10915904Y-1677162D01*
X10910570Y-1692655D01*
X10900409Y-1703070D01*
X10884661Y-1708150D01*
X10869168Y-1708150D01*
X10853420Y-1703070D01*
X10848340Y-1697989D01*
X10843259Y-1687576D01*
X5233670Y-1548384D02*
G01*
X5233670Y-1631442D01*
X5228336Y-1647189D01*
X5223256Y-1652270D01*
X5212841Y-1657350D01*
X5202427Y-1657350D01*
X5192013Y-1652270D01*
X5186679Y-1647189D01*
X5181600Y-1631442D01*
X5181600Y-1621028D01*
X5293868Y-1548384D02*
G01*
X5278120Y-1553463D01*
X5273040Y-1563878D01*
X5273040Y-1574292D01*
X5278120Y-1584705D01*
X5288534Y-1590039D01*
X5309361Y-1595120D01*
X5325109Y-1600200D01*
X5335270Y-1610613D01*
X5340604Y-1621028D01*
X5340604Y-1636776D01*
X5335270Y-1647189D01*
X5330190Y-1652270D01*
X5314695Y-1657350D01*
X5293868Y-1657350D01*
X5278120Y-1652270D01*
X5273040Y-1647189D01*
X5267959Y-1636776D01*
X5267959Y-1621028D01*
X5273040Y-1610613D01*
X5283454Y-1600200D01*
X5298947Y-1595120D01*
X5319775Y-1590039D01*
X5330190Y-1584705D01*
X5335270Y-1574292D01*
X5335270Y-1563878D01*
X5330190Y-1553463D01*
X5314695Y-1548384D01*
X5293868Y-1548384D01*
X8014970Y-1573784D02*
G01*
X8014970Y-1656842D01*
X8009636Y-1672589D01*
X8004556Y-1677670D01*
X7994141Y-1682750D01*
X7983727Y-1682750D01*
X7973313Y-1677670D01*
X7967979Y-1672589D01*
X7962900Y-1656842D01*
X7962900Y-1646428D01*
X8049259Y-1594612D02*
G01*
X8059420Y-1589278D01*
X8075168Y-1573784D01*
X8075168Y-1682750D01*
X8109458Y-1594612D02*
G01*
X8119872Y-1589278D01*
X8135365Y-1573784D01*
X8135365Y-1682750D01*
X2223770Y2149855D02*
G01*
X2223770Y2066797D01*
X2218436Y2051050D01*
X2213356Y2045970D01*
X2202941Y2040889D01*
X2192527Y2040889D01*
X2182113Y2045970D01*
X2176779Y2051050D01*
X2171700Y2066797D01*
X2171700Y2077212D01*
X2268220Y2149855D02*
G01*
X2325370Y2149855D01*
X2294381Y2108200D01*
X2309875Y2108200D01*
X2320290Y2103120D01*
X2325370Y2098039D01*
X2330704Y2082292D01*
X2330704Y2071878D01*
X2325370Y2056384D01*
X2315209Y2045970D01*
X2299461Y2040889D01*
X2283968Y2040889D01*
X2268220Y2045970D01*
X2263140Y2051050D01*
X2258059Y2061463D01*
X2211070Y2657855D02*
G01*
X2211070Y2574797D01*
X2205736Y2559050D01*
X2200656Y2553970D01*
X2190241Y2548889D01*
X2179827Y2548889D01*
X2169413Y2553970D01*
X2164079Y2559050D01*
X2159000Y2574797D01*
X2159000Y2585212D01*
X2297175Y2657855D02*
G01*
X2245359Y2585212D01*
X2323084Y2585212D01*
X2297175Y2657855D02*
G01*
X2297175Y2548889D01*
X2211070Y3178555D02*
G01*
X2211070Y3095497D01*
X2205736Y3079750D01*
X2200656Y3074670D01*
X2190241Y3069589D01*
X2179827Y3069589D01*
X2169413Y3074670D01*
X2164079Y3079750D01*
X2159000Y3095497D01*
X2159000Y3105912D01*
X2312670Y3142234D02*
G01*
X2307590Y3126739D01*
X2297175Y3116326D01*
X2281681Y3110992D01*
X2276347Y3110992D01*
X2260854Y3116326D01*
X2250440Y3126739D01*
X2245359Y3142234D01*
X2245359Y3147313D01*
X2250440Y3163062D01*
X2260854Y3173476D01*
X2276347Y3178555D01*
X2281681Y3178555D01*
X2297175Y3173476D01*
X2307590Y3163062D01*
X2312670Y3142234D01*
X2312670Y3116326D01*
X2307590Y3090163D01*
X2297175Y3074670D01*
X2281681Y3069589D01*
X2271268Y3069589D01*
X2255520Y3074670D01*
X2250440Y3085084D01*
X2223770Y3673855D02*
G01*
X2223770Y3590797D01*
X2218436Y3575050D01*
X2213356Y3569970D01*
X2202941Y3564889D01*
X2192527Y3564889D01*
X2182113Y3569970D01*
X2176779Y3575050D01*
X2171700Y3590797D01*
X2171700Y3601212D01*
X2258059Y3653028D02*
G01*
X2268220Y3658362D01*
X2283968Y3673855D01*
X2283968Y3564889D01*
X2349500Y3673855D02*
G01*
X2333752Y3668776D01*
X2323338Y3653028D01*
X2318258Y3627120D01*
X2318258Y3611626D01*
X2323338Y3585463D01*
X2333752Y3569970D01*
X2349500Y3564889D01*
X2359659Y3564889D01*
X2375408Y3569970D01*
X2385822Y3585463D01*
X2390902Y3611626D01*
X2390902Y3627120D01*
X2385822Y3653028D01*
X2375408Y3668776D01*
X2359659Y3673855D01*
X2349500Y3673855D01*
X15419070Y8217915D02*
G01*
X15419070Y8134858D01*
X15413736Y8119110D01*
X15408656Y8114029D01*
X15398241Y8108950D01*
X15387827Y8108950D01*
X15377413Y8114029D01*
X15372079Y8119110D01*
X15367000Y8134858D01*
X15367000Y8145271D01*
X15515590Y8202421D02*
G01*
X15510509Y8212836D01*
X15494761Y8217915D01*
X15484347Y8217915D01*
X15468854Y8212836D01*
X15458440Y8197087D01*
X15453359Y8171179D01*
X15453359Y8145271D01*
X15458440Y8124444D01*
X15468854Y8114029D01*
X15484347Y8108950D01*
X15489681Y8108950D01*
X15505175Y8114029D01*
X15515590Y8124444D01*
X15520670Y8139937D01*
X15520670Y8145271D01*
X15515590Y8160765D01*
X15505175Y8171179D01*
X15489681Y8176260D01*
X15484347Y8176260D01*
X15468854Y8171179D01*
X15458440Y8160765D01*
X15453359Y8145271D01*
X2411729Y-2033015D02*
G01*
X2411729Y-1949957D01*
X2417063Y-1934210D01*
X2422143Y-1929129D01*
X2432558Y-1924050D01*
X2442972Y-1924050D01*
X2453386Y-1929129D01*
X2458720Y-1934210D01*
X2463800Y-1949957D01*
X2463800Y-1960371D01*
X2377440Y-2012187D02*
G01*
X2367279Y-2017521D01*
X2351531Y-2033015D01*
X2351531Y-1924050D01*
X2306827Y-2033015D02*
G01*
X2249677Y-2033015D01*
X2280920Y-1991360D01*
X2265425Y-1991360D01*
X2255011Y-1986279D01*
X2249677Y-1981200D01*
X2244597Y-1965452D01*
X2244597Y-1955037D01*
X2249677Y-1939544D01*
X2260091Y-1929129D01*
X2275840Y-1924050D01*
X2291334Y-1924050D01*
X2306827Y-1929129D01*
X2312161Y-1934210D01*
X2317241Y-1944623D01*
X10490200Y6986015D02*
G01*
X10490200Y6877050D01*
X10490200Y6986015D02*
G01*
X10536936Y6986015D01*
X10552429Y6980936D01*
X10557763Y6975602D01*
X10562843Y6965187D01*
X10562843Y6954773D01*
X10557763Y6944360D01*
X10552429Y6939279D01*
X10536936Y6934200D01*
X10490200Y6934200D01*
X10526522Y6934200D02*
G01*
X10562843Y6877050D01*
X10597134Y6965187D02*
G01*
X10607547Y6970521D01*
X10623295Y6986015D01*
X10623295Y6877050D01*
X8953500Y6986015D02*
G01*
X8953500Y6877050D01*
X8953500Y6986015D02*
G01*
X9000236Y6986015D01*
X9015729Y6980936D01*
X9021063Y6975602D01*
X9026143Y6965187D01*
X9026143Y6954773D01*
X9021063Y6944360D01*
X9015729Y6939279D01*
X9000236Y6934200D01*
X8953500Y6934200D01*
X8989822Y6934200D02*
G01*
X9026143Y6877050D01*
X9065768Y6960108D02*
G01*
X9065768Y6965187D01*
X9070847Y6975602D01*
X9076181Y6980936D01*
X9086595Y6986015D01*
X9107170Y6986015D01*
X9117584Y6980936D01*
X9122918Y6975602D01*
X9127997Y6965187D01*
X9127997Y6954773D01*
X9122918Y6944360D01*
X9112504Y6928865D01*
X9060434Y6877050D01*
X9133331Y6877050D01*
X7442200Y6986015D02*
G01*
X7442200Y6877050D01*
X7442200Y6986015D02*
G01*
X7488936Y6986015D01*
X7504429Y6980936D01*
X7509763Y6975602D01*
X7514843Y6965187D01*
X7514843Y6954773D01*
X7509763Y6944360D01*
X7504429Y6939279D01*
X7488936Y6934200D01*
X7442200Y6934200D01*
X7478522Y6934200D02*
G01*
X7514843Y6877050D01*
X7559547Y6986015D02*
G01*
X7616697Y6986015D01*
X7585709Y6944360D01*
X7601204Y6944360D01*
X7611618Y6939279D01*
X7616697Y6934200D01*
X7622031Y6918452D01*
X7622031Y6908037D01*
X7616697Y6892544D01*
X7606284Y6882129D01*
X7590790Y6877050D01*
X7575295Y6877050D01*
X7559547Y6882129D01*
X7554468Y6887210D01*
X7549134Y6897623D01*
X5918200Y7011415D02*
G01*
X5918200Y6902450D01*
X5918200Y7011415D02*
G01*
X5964936Y7011415D01*
X5980429Y7006336D01*
X5985763Y7001002D01*
X5990843Y6990587D01*
X5990843Y6980173D01*
X5985763Y6969760D01*
X5980429Y6964679D01*
X5964936Y6959600D01*
X5918200Y6959600D01*
X5954522Y6959600D02*
G01*
X5990843Y6902450D01*
X6077204Y7011415D02*
G01*
X6025134Y6938771D01*
X6103111Y6938771D01*
X6077204Y7011415D02*
G01*
X6077204Y6902450D01*
X15734284Y6769100D02*
G01*
X15843250Y6769100D01*
X15734284Y6769100D02*
G01*
X15734284Y6815836D01*
X15739363Y6831329D01*
X15744697Y6836663D01*
X15755111Y6841744D01*
X15765525Y6841744D01*
X15775940Y6836663D01*
X15781020Y6831329D01*
X15786100Y6815836D01*
X15786100Y6769100D01*
X15786100Y6805421D02*
G01*
X15843250Y6841744D01*
X15734284Y6938518D02*
G01*
X15734284Y6886447D01*
X15781020Y6881368D01*
X15775940Y6886447D01*
X15770606Y6902195D01*
X15770606Y6917689D01*
X15775940Y6933184D01*
X15786100Y6943597D01*
X15801847Y6948931D01*
X15812261Y6948931D01*
X15827756Y6943597D01*
X15838170Y6933184D01*
X15843250Y6917689D01*
X15843250Y6902195D01*
X15838170Y6886447D01*
X15833090Y6881368D01*
X15822675Y6876034D01*
X15315184Y6756400D02*
G01*
X15424150Y6756400D01*
X15315184Y6756400D02*
G01*
X15315184Y6803136D01*
X15320263Y6818629D01*
X15325597Y6823963D01*
X15336011Y6829044D01*
X15346425Y6829044D01*
X15356840Y6823963D01*
X15361920Y6818629D01*
X15367000Y6803136D01*
X15367000Y6756400D01*
X15367000Y6792721D02*
G01*
X15424150Y6829044D01*
X15330677Y6925818D02*
G01*
X15320263Y6920484D01*
X15315184Y6904989D01*
X15315184Y6894576D01*
X15320263Y6879081D01*
X15336011Y6868668D01*
X15361920Y6863334D01*
X15387827Y6863334D01*
X15408656Y6868668D01*
X15419070Y6879081D01*
X15424150Y6894576D01*
X15424150Y6899910D01*
X15419070Y6915404D01*
X15408656Y6925818D01*
X15393161Y6930897D01*
X15387827Y6930897D01*
X15372334Y6925818D01*
X15361920Y6915404D01*
X15356840Y6899910D01*
X15356840Y6894576D01*
X15361920Y6879081D01*
X15372334Y6868668D01*
X15387827Y6863334D01*
X14819884Y6756400D02*
G01*
X14928850Y6756400D01*
X14819884Y6756400D02*
G01*
X14819884Y6803136D01*
X14824963Y6818629D01*
X14830297Y6823963D01*
X14840711Y6829044D01*
X14851125Y6829044D01*
X14861540Y6823963D01*
X14866620Y6818629D01*
X14871700Y6803136D01*
X14871700Y6756400D01*
X14871700Y6792721D02*
G01*
X14928850Y6829044D01*
X14819884Y6936231D02*
G01*
X14928850Y6884162D01*
X14819884Y6863334D02*
G01*
X14819884Y6936231D01*
X14299184Y6781800D02*
G01*
X14408150Y6781800D01*
X14299184Y6781800D02*
G01*
X14299184Y6828536D01*
X14304263Y6844029D01*
X14309597Y6849363D01*
X14320011Y6854444D01*
X14330425Y6854444D01*
X14340840Y6849363D01*
X14345920Y6844029D01*
X14351000Y6828536D01*
X14351000Y6781800D01*
X14351000Y6818121D02*
G01*
X14408150Y6854444D01*
X14299184Y6914895D02*
G01*
X14304263Y6899147D01*
X14314677Y6894068D01*
X14325091Y6894068D01*
X14335506Y6899147D01*
X14340840Y6909562D01*
X14345920Y6930389D01*
X14351000Y6945884D01*
X14361413Y6956297D01*
X14371827Y6961631D01*
X14387575Y6961631D01*
X14397990Y6956297D01*
X14403070Y6951218D01*
X14408150Y6935470D01*
X14408150Y6914895D01*
X14403070Y6899147D01*
X14397990Y6894068D01*
X14387575Y6888734D01*
X14371827Y6888734D01*
X14361413Y6894068D01*
X14351000Y6904481D01*
X14345920Y6919976D01*
X14340840Y6940804D01*
X14335506Y6951218D01*
X14325091Y6956297D01*
X14314677Y6956297D01*
X14304263Y6951218D01*
X14299184Y6935470D01*
X14299184Y6914895D01*
X13728700Y-978915D02*
G01*
X13728700Y-900937D01*
X13723620Y-885444D01*
X13713206Y-875029D01*
X13697458Y-869950D01*
X13687043Y-869950D01*
X13671550Y-875029D01*
X13661136Y-885444D01*
X13656056Y-900937D01*
X13656056Y-978915D01*
X13621766Y-958087D02*
G01*
X13611352Y-963421D01*
X13595604Y-978915D01*
X13595604Y-869950D01*
X11049000Y-978915D02*
G01*
X11049000Y-900937D01*
X11043920Y-885444D01*
X11033506Y-875029D01*
X11017758Y-869950D01*
X11007343Y-869950D01*
X10991850Y-875029D01*
X10981436Y-885444D01*
X10976356Y-900937D01*
X10976356Y-978915D01*
X10936731Y-953007D02*
G01*
X10936731Y-958087D01*
X10931652Y-968502D01*
X10926318Y-973836D01*
X10915904Y-978915D01*
X10895329Y-978915D01*
X10884915Y-973836D01*
X10879581Y-968502D01*
X10874502Y-958087D01*
X10874502Y-947673D01*
X10879581Y-937260D01*
X10889995Y-921765D01*
X10942065Y-869950D01*
X10869168Y-869950D01*
X5600700Y-1093215D02*
G01*
X5600700Y-1015237D01*
X5595620Y-999744D01*
X5585206Y-989329D01*
X5569458Y-984250D01*
X5559043Y-984250D01*
X5543550Y-989329D01*
X5533136Y-999744D01*
X5528056Y-1015237D01*
X5528056Y-1093215D01*
X5483352Y-1093215D02*
G01*
X5426202Y-1093215D01*
X5457190Y-1051560D01*
X5441695Y-1051560D01*
X5431281Y-1046479D01*
X5426202Y-1041400D01*
X5420868Y-1025652D01*
X5420868Y-1015237D01*
X5426202Y-999744D01*
X5436615Y-989329D01*
X5452109Y-984250D01*
X5467604Y-984250D01*
X5483352Y-989329D01*
X5488431Y-994410D01*
X5493765Y-1004823D01*
X8242300Y-953515D02*
G01*
X8242300Y-875537D01*
X8237220Y-860044D01*
X8226806Y-849629D01*
X8211058Y-844550D01*
X8200643Y-844550D01*
X8185150Y-849629D01*
X8174736Y-860044D01*
X8169656Y-875537D01*
X8169656Y-953515D01*
X8083295Y-953515D02*
G01*
X8135365Y-880871D01*
X8057388Y-880871D01*
X8083295Y-953515D02*
G01*
X8083295Y-844550D01*
G36*
X9979406Y741934D02*
G01*
X9968280Y741324D01*
X9957206Y739851D01*
X9946284Y737616D01*
X9935565Y734568D01*
X9925100Y730707D01*
X9914991Y726084D01*
X9905187Y720750D01*
X9895840Y714654D01*
X9886950Y707948D01*
X9878568Y700582D01*
X9870795Y692607D01*
X9863632Y684072D01*
X9857079Y675030D01*
X9851288Y665530D01*
X9846157Y655624D01*
X9841788Y645363D01*
X9839858Y640130D01*
X9836658Y629412D01*
X9834270Y618540D01*
X9833356Y613054D01*
X9832187Y601980D01*
X10132161Y601980D01*
X10130993Y613054D01*
X10129012Y624027D01*
X10126218Y634796D01*
X10122611Y645363D01*
X10118242Y655624D01*
X10113111Y665530D01*
X10107269Y675030D01*
X10100767Y684072D01*
X10093604Y692607D01*
X10085781Y700582D01*
X10077450Y707948D01*
X10068560Y714654D01*
X10059212Y720750D01*
X10049408Y726084D01*
X10039248Y730707D01*
X10028783Y734568D01*
X10018064Y737616D01*
X10007193Y739851D01*
X9996119Y741324D01*
X9984994Y741934D01*
G37*
G36*
X7185406Y729234D02*
G01*
X7174280Y728624D01*
X7163206Y727151D01*
X7152284Y724916D01*
X7141565Y721868D01*
X7131100Y718007D01*
X7120991Y713384D01*
X7111187Y708050D01*
X7101840Y701954D01*
X7092950Y695248D01*
X7084568Y687882D01*
X7076795Y679907D01*
X7069632Y671372D01*
X7063079Y662330D01*
X7057288Y652830D01*
X7052157Y642924D01*
X7047788Y632663D01*
X7045858Y627430D01*
X7042658Y616712D01*
X7040270Y605840D01*
X7039356Y600354D01*
X7038187Y589280D01*
X7338161Y589280D01*
X7336993Y600354D01*
X7335012Y611327D01*
X7332218Y622096D01*
X7328611Y632663D01*
X7324242Y642924D01*
X7319111Y652830D01*
X7313269Y662330D01*
X7306767Y671372D01*
X7299604Y679907D01*
X7291781Y687882D01*
X7283450Y695248D01*
X7274559Y701954D01*
X7265212Y708050D01*
X7255408Y713384D01*
X7245248Y718007D01*
X7234783Y721868D01*
X7224064Y724916D01*
X7213193Y727151D01*
X7202119Y728624D01*
X7190994Y729234D01*
G37*
G36*
X4658106Y767334D02*
G01*
X4646980Y766724D01*
X4635906Y765251D01*
X4624984Y763016D01*
X4614265Y759968D01*
X4603800Y756107D01*
X4593691Y751484D01*
X4583887Y746150D01*
X4574540Y740054D01*
X4565650Y733348D01*
X4557268Y725982D01*
X4549495Y718007D01*
X4542332Y709472D01*
X4535779Y700430D01*
X4529988Y690930D01*
X4524857Y681024D01*
X4520488Y670763D01*
X4518558Y665530D01*
X4515358Y654812D01*
X4512970Y643940D01*
X4512056Y638454D01*
X4510887Y627380D01*
X4810861Y627380D01*
X4809693Y638454D01*
X4807712Y649427D01*
X4804918Y660196D01*
X4801311Y670763D01*
X4796942Y681024D01*
X4791811Y690930D01*
X4785969Y700430D01*
X4779467Y709472D01*
X4772304Y718007D01*
X4764481Y725982D01*
X4756150Y733348D01*
X4747260Y740054D01*
X4737912Y746150D01*
X4728108Y751484D01*
X4717948Y756107D01*
X4707483Y759968D01*
X4696764Y763016D01*
X4685893Y765251D01*
X4674819Y766724D01*
X4663694Y767334D01*
G37*
G36*
X12773406Y526034D02*
G01*
X12762280Y525424D01*
X12751206Y523951D01*
X12740284Y521716D01*
X12729565Y518668D01*
X12719100Y514807D01*
X12708991Y510184D01*
X12699187Y504850D01*
X12689840Y498754D01*
X12680950Y492048D01*
X12672568Y484682D01*
X12664795Y476707D01*
X12657632Y468172D01*
X12651079Y459130D01*
X12645288Y449630D01*
X12640157Y439724D01*
X12635788Y429463D01*
X12633858Y424230D01*
X12630658Y413512D01*
X12628270Y402640D01*
X12627356Y397154D01*
X12626187Y386080D01*
X12926161Y386080D01*
X12924993Y397154D01*
X12923012Y408127D01*
X12920218Y418896D01*
X12916611Y429463D01*
X12912242Y439724D01*
X12907111Y449630D01*
X12901269Y459130D01*
X12894767Y468172D01*
X12887604Y476707D01*
X12879781Y484682D01*
X12871450Y492048D01*
X12862560Y498754D01*
X12853212Y504850D01*
X12843408Y510184D01*
X12833248Y514807D01*
X12822783Y518668D01*
X12812064Y521716D01*
X12801193Y523951D01*
X12790119Y525424D01*
X12778994Y526034D01*
G37*
D10*
X6527800Y7404100D02*
G01*
X6400800Y7404100D01*
X6337300Y7467600D01*
X6273800Y7404100D01*
X6146800Y7404100D01*
X6083300Y7467600D01*
X6019800Y7404100D01*
X5892800Y7404100D01*
X5829300Y7467600D01*
X5765800Y7404100D01*
X5638800Y7404100D01*
X5575300Y7467600D01*
X5511800Y7404100D01*
X5384800Y7404100D01*
X5321300Y7467600D01*
X5257800Y7404100D01*
X5130800Y7404100D01*
X5067300Y7467600D01*
X5003800Y7404100D01*
X4876800Y7404100D01*
X4813300Y7467600D01*
X4813300Y7594600D01*
X4876800Y7658100D01*
X5003800Y7658100D01*
X5067300Y7594600D01*
X5130800Y7658100D01*
X5257800Y7658100D01*
X5321300Y7594600D01*
X5384800Y7658100D01*
X5511800Y7658100D01*
X5575300Y7594600D01*
X5638800Y7658100D01*
X5765800Y7658100D01*
X5829300Y7594600D01*
X5892800Y7658100D01*
X6019800Y7658100D01*
X6083300Y7594600D01*
X6146800Y7658100D01*
X6273800Y7658100D01*
X6337300Y7594600D01*
X6400800Y7658100D01*
X6527800Y7658100D01*
X6591300Y7594600D01*
X6654800Y7658100D01*
X6781800Y7658100D01*
X6845300Y7594600D01*
X6845300Y7467600D01*
X6781800Y7404100D01*
X6654800Y7404100D01*
X6591300Y7467600D01*
X6527800Y7404100D01*
X7035800Y2578100D02*
G01*
X6908800Y2578100D01*
X6845300Y2641600D01*
X6781800Y2578100D01*
X6654800Y2578100D01*
X6591300Y2641600D01*
X6527800Y2578100D01*
X6400800Y2578100D01*
X6337300Y2641600D01*
X6273800Y2578100D01*
X6146800Y2578100D01*
X6083300Y2641600D01*
X6019800Y2578100D01*
X5892800Y2578100D01*
X5829300Y2641600D01*
X5765800Y2578100D01*
X5638800Y2578100D01*
X5575300Y2641600D01*
X5511800Y2578100D01*
X5384800Y2578100D01*
X5321300Y2641600D01*
X5321300Y2768600D01*
X5384800Y2832100D01*
X5511800Y2832100D01*
X5575300Y2768600D01*
X5638800Y2832100D01*
X5765800Y2832100D01*
X5829300Y2768600D01*
X5892800Y2832100D01*
X6019800Y2832100D01*
X6083300Y2768600D01*
X6146800Y2832100D01*
X6273800Y2832100D01*
X6337300Y2768600D01*
X6400800Y2832100D01*
X6527800Y2832100D01*
X6591300Y2768600D01*
X6654800Y2832100D01*
X6781800Y2832100D01*
X6845300Y2768600D01*
X6908800Y2832100D01*
X7035800Y2832100D01*
X7099300Y2768600D01*
X7162800Y2832100D01*
X7289800Y2832100D01*
X7353300Y2768600D01*
X7353300Y2641600D01*
X7289800Y2578100D01*
X7162800Y2578100D01*
X7099300Y2641600D01*
X7035800Y2578100D01*
X8813800Y7404100D02*
G01*
X8686800Y7404100D01*
X8623300Y7467600D01*
X8559800Y7404100D01*
X8432800Y7404100D01*
X8369300Y7467600D01*
X8305800Y7404100D01*
X8178800Y7404100D01*
X8115300Y7467600D01*
X8051800Y7404100D01*
X7924800Y7404100D01*
X7861300Y7467600D01*
X7797800Y7404100D01*
X7670800Y7404100D01*
X7607300Y7467600D01*
X7543800Y7404100D01*
X7416800Y7404100D01*
X7353300Y7467600D01*
X7289800Y7404100D01*
X7162800Y7404100D01*
X7099300Y7467600D01*
X7099300Y7594600D01*
X7162800Y7658100D01*
X7289800Y7658100D01*
X7353300Y7594600D01*
X7416800Y7658100D01*
X7543800Y7658100D01*
X7607300Y7594600D01*
X7670800Y7658100D01*
X7797800Y7658100D01*
X7861300Y7594600D01*
X7924800Y7658100D01*
X8051800Y7658100D01*
X8115300Y7594600D01*
X8178800Y7658100D01*
X8305800Y7658100D01*
X8369300Y7594600D01*
X8432800Y7658100D01*
X8559800Y7658100D01*
X8623300Y7594600D01*
X8686800Y7658100D01*
X8813800Y7658100D01*
X8877300Y7594600D01*
X8940800Y7658100D01*
X9067800Y7658100D01*
X9131300Y7594600D01*
X9131300Y7467600D01*
X9067800Y7404100D01*
X8940800Y7404100D01*
X8877300Y7467600D01*
X8813800Y7404100D01*
X9321800Y2578100D02*
G01*
X9194800Y2578100D01*
X9131300Y2641600D01*
X9067800Y2578100D01*
X8940800Y2578100D01*
X8877300Y2641600D01*
X8813800Y2578100D01*
X8686800Y2578100D01*
X8623300Y2641600D01*
X8559800Y2578100D01*
X8432800Y2578100D01*
X8369300Y2641600D01*
X8305800Y2578100D01*
X8178800Y2578100D01*
X8115300Y2641600D01*
X8051800Y2578100D01*
X7924800Y2578100D01*
X7861300Y2641600D01*
X7797800Y2578100D01*
X7670800Y2578100D01*
X7607300Y2641600D01*
X7607300Y2768600D01*
X7670800Y2832100D01*
X7797800Y2832100D01*
X7861300Y2768600D01*
X7924800Y2832100D01*
X8051800Y2832100D01*
X8115300Y2768600D01*
X8178800Y2832100D01*
X8305800Y2832100D01*
X8369300Y2768600D01*
X8432800Y2832100D01*
X8559800Y2832100D01*
X8623300Y2768600D01*
X8686800Y2832100D01*
X8813800Y2832100D01*
X8877300Y2768600D01*
X8940800Y2832100D01*
X9067800Y2832100D01*
X9131300Y2768600D01*
X9194800Y2832100D01*
X9321800Y2832100D01*
X9385300Y2768600D01*
X9448800Y2832100D01*
X9575800Y2832100D01*
X9639300Y2768600D01*
X9639300Y2641600D01*
X9575800Y2578100D01*
X9448800Y2578100D01*
X9385300Y2641600D01*
X9321800Y2578100D01*
X11760200Y2578100D02*
G01*
X11633200Y2578100D01*
X11569700Y2641600D01*
X11506200Y2578100D01*
X11379200Y2578100D01*
X11315700Y2641600D01*
X11252200Y2578100D01*
X11125200Y2578100D01*
X11061700Y2641600D01*
X10998200Y2578100D01*
X10871200Y2578100D01*
X10807700Y2641600D01*
X10744200Y2578100D01*
X10617200Y2578100D01*
X10553700Y2641600D01*
X10490200Y2578100D01*
X10363200Y2578100D01*
X10299700Y2641600D01*
X10236200Y2578100D01*
X10109200Y2578100D01*
X10045700Y2641600D01*
X9982200Y2578100D01*
X9855200Y2578100D01*
X9791700Y2641600D01*
X9791700Y2768600D01*
X9855200Y2832100D01*
X9982200Y2832100D01*
X10045700Y2768600D01*
X10109200Y2832100D01*
X10236200Y2832100D01*
X10299700Y2768600D01*
X10363200Y2832100D01*
X10490200Y2832100D01*
X10553700Y2768600D01*
X10617200Y2832100D01*
X10744200Y2832100D01*
X10807700Y2768600D01*
X10871200Y2832100D01*
X10998200Y2832100D01*
X11061700Y2768600D01*
X11125200Y2832100D01*
X11252200Y2832100D01*
X11315700Y2768600D01*
X11379200Y2832100D01*
X11506200Y2832100D01*
X11569700Y2768600D01*
X11633200Y2832100D01*
X11760200Y2832100D01*
X11823700Y2768600D01*
X11887200Y2832100D01*
X12014200Y2832100D01*
X12077700Y2768600D01*
X12141200Y2832100D01*
X12268200Y2832100D01*
X12331700Y2768600D01*
X12331700Y2641600D01*
X12268200Y2578100D01*
X12141200Y2578100D01*
X12077700Y2641600D01*
X12014200Y2578100D01*
X11887200Y2578100D01*
X11823700Y2641600D01*
X11760200Y2578100D01*
X4368800Y6896100D02*
G01*
X4749800Y6896100D01*
X4813300Y6959600D01*
X4813300Y7086600D01*
X4749800Y7150100D01*
X4368800Y7150100D01*
X4305300Y7086600D01*
X4305300Y6959600D01*
X4368800Y6896100D01*
X4305300Y6832600D01*
X4305300Y6705600D01*
X4368800Y6642100D01*
X4749800Y6642100D01*
X4813300Y6578600D01*
X4813300Y6451600D01*
X4749800Y6388100D01*
X4368800Y6388100D01*
X4305300Y6324600D01*
X4305300Y6197600D01*
X4368800Y6134100D01*
X4749800Y6134100D01*
X4813300Y6070600D01*
X4813300Y5943600D01*
X4749800Y5880100D01*
X4368800Y5880100D01*
X4305300Y5816600D01*
X4305300Y5689600D01*
X4368800Y5626100D01*
X4749800Y5626100D01*
X4813300Y5562600D01*
X4813300Y5435600D01*
X4749800Y5372100D01*
X4368800Y5372100D01*
X4305300Y5308600D01*
X4305300Y5181600D01*
X4368800Y5118100D01*
X4305300Y5054600D01*
X4305300Y4927600D01*
X4368800Y4864100D01*
X4305300Y4800600D01*
X4305300Y4673600D01*
X4368800Y4610100D01*
X4305300Y4546600D01*
X4305300Y4419600D01*
X4368800Y4356100D01*
X4305300Y4292600D01*
X4305300Y4165600D01*
X4368800Y4102100D01*
X4305300Y4038600D01*
X4305300Y3911600D01*
X4368800Y3848100D01*
X4305300Y3784600D01*
X4305300Y3657600D01*
X4368800Y3594100D01*
X4305300Y3530600D01*
X4305300Y3403600D01*
X4368800Y3340100D01*
X4305300Y3276600D01*
X4305300Y3149600D01*
X4368800Y3086100D01*
X4749800Y3086100D01*
X4813300Y3149600D01*
X4813300Y3276600D01*
X4749800Y3340100D01*
X4368800Y3340100D01*
X4368800Y5118100D02*
G01*
X4749800Y5118100D01*
X4813300Y5054600D01*
X4813300Y4927600D01*
X4749800Y4864100D01*
X4813300Y4800600D01*
X4813300Y4673600D01*
X4749800Y4610100D01*
X4813300Y4546600D01*
X4813300Y4419600D01*
X4749800Y4356100D01*
X4813300Y4292600D01*
X4813300Y4165600D01*
X4749800Y4102100D01*
X4813300Y4038600D01*
X4813300Y3911600D01*
X4749800Y3848100D01*
X4813300Y3784600D01*
X4813300Y3657600D01*
X4749800Y3594100D01*
X4813300Y3530600D01*
X4813300Y3403600D01*
X4749800Y3340100D01*
X4749800Y3086100D02*
G01*
X4813300Y3022600D01*
X4813300Y2895600D01*
X4749800Y2832100D01*
X4813300Y2768600D01*
X4813300Y2641600D01*
X4749800Y2578100D01*
X4368800Y2578100D01*
X4305300Y2641600D01*
X4305300Y2768600D01*
X4368800Y2832100D01*
X4749800Y2832100D01*
X4368800Y2832100D02*
G01*
X4305300Y2895600D01*
X4305300Y3022600D01*
X4368800Y3086100D01*
X4749800Y4610100D02*
G01*
X4368800Y4610100D01*
X4749800Y4356100D02*
G01*
X4368800Y4356100D01*
X4749800Y4102100D02*
G01*
X4368800Y4102100D01*
X4749800Y3848100D02*
G01*
X4368800Y3848100D01*
X4749800Y3594100D02*
G01*
X4368800Y3594100D01*
X4368800Y6642100D02*
G01*
X4305300Y6578600D01*
X4305300Y6451600D01*
X4368800Y6388100D01*
X4368800Y6134100D02*
G01*
X4305300Y6070600D01*
X4305300Y5943600D01*
X4368800Y5880100D01*
X4368800Y5626100D02*
G01*
X4305300Y5562600D01*
X4305300Y5435600D01*
X4368800Y5372100D01*
X4749800Y6896100D02*
G01*
X4813300Y6832600D01*
X4813300Y6705600D01*
X4749800Y6642100D01*
X4749800Y6388100D02*
G01*
X4813300Y6324600D01*
X4813300Y6197600D01*
X4749800Y6134100D01*
X4749800Y5880100D02*
G01*
X4813300Y5816600D01*
X4813300Y5689600D01*
X4749800Y5626100D01*
X4749800Y5372100D02*
G01*
X4813300Y5308600D01*
X4813300Y5181600D01*
X4749800Y5118100D01*
X4749800Y4864100D02*
G01*
X4368800Y4864100D01*
D23*
X4686300Y2570479D02*
G01*
X4686300Y2506979D01*
X4432300Y2506979D01*
X4432300Y2573020D01*
X4686300Y7157720D02*
G01*
X4686300Y7231379D01*
X4432300Y7231379D01*
X4432300Y7155179D01*
D10*
X10909300Y7467600D02*
G01*
X10845800Y7404100D01*
X10718800Y7404100D01*
X10655300Y7467600D01*
X10591800Y7404100D01*
X10464800Y7404100D01*
X10401300Y7467600D01*
X10337800Y7404100D01*
X10210800Y7404100D01*
X10147300Y7467600D01*
X10083800Y7404100D01*
X9956800Y7404100D01*
X9893300Y7467600D01*
X9829800Y7404100D01*
X9702800Y7404100D01*
X9639300Y7467600D01*
X9575800Y7404100D01*
X9448800Y7404100D01*
X9385300Y7467600D01*
X9385300Y7594600D01*
X9448800Y7658100D01*
X9575800Y7658100D01*
X9639300Y7594600D01*
X9702800Y7658100D01*
X9829800Y7658100D01*
X9893300Y7594600D01*
X9956800Y7658100D01*
X10083800Y7658100D01*
X10147300Y7594600D01*
X10210800Y7658100D01*
X10337800Y7658100D01*
X10401300Y7594600D01*
X10464800Y7658100D01*
X10591800Y7658100D01*
X10655300Y7594600D01*
X10718800Y7658100D01*
X10845800Y7658100D01*
X10909300Y7594600D01*
X10972800Y7658100D01*
X11099800Y7658100D01*
X11163300Y7594600D01*
X11226800Y7658100D01*
X11353800Y7658100D01*
X11417300Y7594600D01*
X11417300Y7467600D01*
X11353800Y7404100D01*
X11226800Y7404100D01*
X11163300Y7467600D01*
X11099800Y7404100D01*
X10972800Y7404100D01*
X10909300Y7467600D01*
X10909300Y7594600D01*
D24*
X9887201Y531898D02*
G01*
X9887201Y581898D01*
X9912200Y556900D02*
G01*
X9862200Y556900D01*
X7093201Y519198D02*
G01*
X7093201Y569198D01*
X7118200Y544200D02*
G01*
X7068200Y544200D01*
X4565901Y557298D02*
G01*
X4565901Y607298D01*
X4590900Y582300D02*
G01*
X4540900Y582300D01*
X12681201Y315998D02*
G01*
X12681201Y365998D01*
X12706200Y341000D02*
G01*
X12656200Y341000D01*
D25*
X2032000Y4851400D02*
G01*
X2286000Y4851400D01*
X2286000Y3835400D01*
X2032000Y3835400D01*
X2032000Y4025900D01*
D26*
X2032000Y4851400D02*
G01*
X2032000Y4025900D01*
X13830300Y-1701800D02*
G01*
X13512800Y-1701800D01*
D25*
X13830300Y-1701800D02*
G01*
X13830300Y-1955800D01*
X13322300Y-1955800D01*
X13322300Y-1701800D01*
X13512800Y-1701800D01*
D26*
X11023600Y-1727200D02*
G01*
X10706100Y-1727200D01*
D25*
X11023600Y-1727200D02*
G01*
X11023600Y-1981200D01*
X10515600Y-1981200D01*
X10515600Y-1727200D01*
X10706100Y-1727200D01*
D26*
X5448300Y-1676400D02*
G01*
X5130800Y-1676400D01*
D25*
X5448300Y-1676400D02*
G01*
X5448300Y-1930400D01*
X4940300Y-1930400D01*
X4940300Y-1676400D01*
X5130800Y-1676400D01*
D26*
X8229600Y-1701800D02*
G01*
X7912100Y-1701800D01*
D25*
X8229600Y-1701800D02*
G01*
X8229600Y-1955800D01*
X7721600Y-1955800D01*
X7721600Y-1701800D01*
X7912100Y-1701800D01*
X2298700Y1765300D02*
G01*
X2044700Y1765300D01*
X2044700Y2019300D01*
X2298700Y2019300D01*
X2298700Y1828800D01*
D26*
X2298700Y1765300D02*
G01*
X2298700Y1828800D01*
D25*
X2286000Y2273300D02*
G01*
X2032000Y2273300D01*
X2032000Y2527300D01*
X2286000Y2527300D01*
X2286000Y2336800D01*
D26*
X2286000Y2273300D02*
G01*
X2286000Y2336800D01*
D25*
X2286000Y2794000D02*
G01*
X2032000Y2794000D01*
X2032000Y3048000D01*
X2286000Y3048000D01*
X2286000Y2857500D01*
D26*
X2286000Y2794000D02*
G01*
X2286000Y2857500D01*
D25*
X2298700Y3289300D02*
G01*
X2044700Y3289300D01*
X2044700Y3543300D01*
X2298700Y3543300D01*
X2298700Y3352800D01*
D26*
X2298700Y3289300D02*
G01*
X2298700Y3352800D01*
D25*
X14884400Y8077200D02*
G01*
X14884400Y7569200D01*
X15900400Y7569200D01*
X15900400Y8077200D01*
X14884400Y8077200D01*
X2628900Y-1892300D02*
G01*
X2819400Y-1892300D01*
X2819400Y-1638300D01*
X2057400Y-1638300D01*
X2057400Y-1892300D01*
D26*
X2057400Y-1892300D02*
G01*
X2628900Y-1892300D01*
D10*
X10175240Y6598920D02*
G01*
X10175240Y6837679D01*
X10175240Y6837679D02*
G01*
X10805159Y6837679D01*
X10805159Y6837679D02*
G01*
X10805159Y6598920D01*
X10805159Y6598920D02*
G01*
X10175240Y6598920D01*
X8638540Y6598920D02*
G01*
X8638540Y6837679D01*
X8638540Y6837679D02*
G01*
X9268459Y6837679D01*
X9268459Y6837679D02*
G01*
X9268459Y6598920D01*
X9268459Y6598920D02*
G01*
X8638540Y6598920D01*
X7127240Y6598920D02*
G01*
X7127240Y6837679D01*
X7127240Y6837679D02*
G01*
X7757159Y6837679D01*
X7757159Y6837679D02*
G01*
X7757159Y6598920D01*
X7757159Y6598920D02*
G01*
X7127240Y6598920D01*
X5603240Y6624320D02*
G01*
X5603240Y6863079D01*
X5603240Y6863079D02*
G01*
X6233159Y6863079D01*
X6233159Y6863079D02*
G01*
X6233159Y6624320D01*
X6233159Y6624320D02*
G01*
X5603240Y6624320D01*
X16121379Y6454139D02*
G01*
X15882620Y6454139D01*
X15882620Y6454139D02*
G01*
X15882620Y7084060D01*
X15882620Y7084060D02*
G01*
X16121379Y7084060D01*
X16121379Y7084060D02*
G01*
X16121379Y6454139D01*
X15702279Y6441439D02*
G01*
X15463520Y6441439D01*
X15463520Y6441439D02*
G01*
X15463520Y7071360D01*
X15463520Y7071360D02*
G01*
X15702279Y7071360D01*
X15702279Y7071360D02*
G01*
X15702279Y6441439D01*
X15206979Y6441439D02*
G01*
X14968220Y6441439D01*
X14968220Y6441439D02*
G01*
X14968220Y7071360D01*
X14968220Y7071360D02*
G01*
X15206979Y7071360D01*
X15206979Y7071360D02*
G01*
X15206979Y6441439D01*
X14686279Y6466839D02*
G01*
X14447520Y6466839D01*
X14447520Y6466839D02*
G01*
X14447520Y7096760D01*
X14447520Y7096760D02*
G01*
X14686279Y7096760D01*
X14686279Y7096760D02*
G01*
X14686279Y6466839D01*
D27*
X14676170Y-114109D02*
G01*
X14676170Y-647890D01*
X12730429Y-647890D01*
X12730429Y-114109D01*
X14676170Y-114109D01*
X11996470Y-114109D02*
G01*
X11996470Y-647890D01*
X10050729Y-647890D01*
X10050729Y-114109D01*
X11996470Y-114109D01*
X6548170Y-228409D02*
G01*
X6548170Y-762190D01*
X4602429Y-762190D01*
X4602429Y-228409D01*
X6548170Y-228409D01*
X9189770Y-88709D02*
G01*
X9189770Y-622490D01*
X7244029Y-622490D01*
X7244029Y-88709D01*
X9189770Y-88709D01*
G75*
G01*
X14676171Y-460375D02*
G02*
X14676171Y-301625I0J79375D01*
G75*
G01*
X11996471Y-460375D02*
G02*
X11996471Y-301625I0J79375D01*
G75*
G01*
X6548171Y-574675D02*
G02*
X6548171Y-415925I0J79375D01*
G75*
G01*
X9189771Y-434975D02*
G02*
X9189771Y-276225I0J79375D01*
D10*
G75*
G01
X10132212Y596951D02*
G03X10132212Y596951I-150012J0D01*
G75*
G01
X7338212Y584251D02*
G03X7338212Y584251I-150012J0D01*
G75*
G01
X4810912Y622351D02*
G03X4810912Y622351I-150012J0D01*
G75*
G01
X12926212Y381051D02*
G03X12926212Y381051I-150012J0D01*
D11*
G75*
G01
X14725548Y0D02*
G03X14725548Y0I-15011J0D01*
G75*
G01
X12045848Y0D02*
G03X12045848Y0I-15011J0D01*
G75*
G01
X6597548Y-114300D02*
G03X6597548Y-114300I-15011J0D01*
G75*
G01
X9239148Y25400D02*
G03X9239148Y25400I-15011J0D01*
M02*
